<?xml version="1.0"?>
<svg width="909.9999999999999" height="310" xmlns="http://www.w3.org/2000/svg" xmlns:svg="http://www.w3.org/2000/svg" preserveAspectRatio="xMidYMid meet" version="1.0">
 <metadata>Created by potrace 1.10, written by Peter Selinger 2001-2011</metadata>
 <g class="layer">
  <title>Layer 1</title>
  <rect fill="#000000" height="291.38" id="svg_62" stroke="#000000" stroke-width="2" width="887.69" x="14.97" y="13.5"/>
  <rect fill="#fac81e" height="291.38" id="svg_61" stroke="#000000" stroke-width="2" width="887.69" x="6.09" y="5.34"/>
  <g id="svg_1">
   <path d="m777.63,56.96c-0.97,0.49 -3.46,1.27 -5.46,1.88c-2,0.55 -4.61,1.4 -5.77,1.82c-1.15,0.42 -4.31,1.46 -6.98,2.25c-5.34,1.7 -5.46,1.88 -4.13,7.16c0.67,2.67 2.25,2.97 8.32,1.52c7.77,-1.82 11.53,-2.67 14.02,-3.04c1.34,-0.18 3.46,-0.67 4.8,-1.09c2.55,-0.73 2.55,-0.85 0.85,-7.1c-1.34,-4.55 -2,-4.98 -5.65,-3.4z" fill="#cccccc" id="svg_5" stroke="#000000"/>
   <path d="m342.71,67.83c-0.49,0.67 -0.61,10.44 -0.55,36.3l0.18,35.45l7.89,0l7.89,0l0.06,-14.02c0,-7.65 0.24,-14.33 0.49,-14.69c0.3,-0.55 3.64,-0.73 11.9,-0.73c9.83,0 11.47,-0.12 11.78,-0.97c0.49,-1.21 0.49,-10.2 0,-11.41c-0.3,-0.85 -1.94,-0.97 -11.78,-0.97c-8.38,0 -11.53,-0.18 -12.02,-0.79c-0.36,-0.42 -0.42,-3.34 -0.18,-7.71l0.36,-6.98l12.75,-0.12c7.04,-0.06 13.11,-0.12 13.54,-0.18c0.61,0 0.73,-1.58 0.61,-6.86l-0.18,-6.8l-21.01,-0.18c-17.24,-0.12 -21.13,0 -21.73,0.67l0,-0.01z" fill="#cccccc" id="svg_6" stroke="#000000"/>
   <path d="m614.68,71.11c-0.36,1.27 -0.85,4.07 -1.03,6.19c-0.49,4.31 -1.7,6.13 -4.13,6.13c-0.85,0 -2.19,0.24 -3.04,0.61c-1.52,0.55 -1.58,0.79 -1.58,5.1c0,4.98 0.18,5.22 4.25,5.22l2.31,0l0.3,16.21c0.36,17.79 0.91,21.67 3.76,25.44c2.19,2.79 3.58,3.64 8.2,4.86c4.13,1.03 11.66,0.85 14.87,-0.36c1.46,-0.55 1.52,-0.73 1.52,-6.68l0,-6.07l-5.04,0c-7.47,0 -7.1,0.97 -7.1,-17.79l0,-15.54l6.25,-0.18l6.19,-0.18l0.18,-4.55c0.3,-7.41 0.49,-7.22 -6.44,-7.41l-5.89,-0.18l-0.3,-6.37l-0.3,-6.37l-6.19,-0.18l-6.19,-0.18l-0.61,2.31l0.01,-0.03z" fill="#cccccc" id="svg_7" stroke="#000000"/>
   <path d="m411.25,79c-7.41,2.55 -10.62,4.8 -13.66,9.59c-3.7,5.71 -4.67,10.26 -4.67,20.94c0.06,13.42 1.7,18.7 7.65,24.59c4.55,4.55 9.23,6.56 17.42,7.41c5.89,0.61 23.55,-3.28 25.44,-5.59c0.55,-0.67 0.36,-1.88 -0.67,-4.98c-0.73,-2.25 -1.64,-4.49 -1.94,-4.92c-0.73,-0.91 -3.46,-0.97 -5.71,-0.06c-2.55,1.03 -10.26,2.49 -14.69,2.79c-6.92,0.49 -10.14,-2 -11.05,-8.62c-0.73,-5.46 -1.7,-5.16 18.27,-5.16l17.61,0l0.36,-1.58c0.55,-2.19 -0.3,-13.78 -1.34,-18.27c-2.06,-8.86 -6.74,-13.84 -15.18,-16.15c-4.67,-1.34 -14.08,-1.34 -17.85,0l0.01,0.01zm14.87,12.69c1.76,1.15 3.52,6.37 3.22,9.47l-0.18,2l-9.83,0.18l-9.9,0.12l0,-2.67c0,-3.46 1.82,-7.47 4.01,-8.92c2.37,-1.52 10.5,-1.64 12.69,-0.18l-0.01,0z" fill="#cccccc" id="svg_8" stroke="#000000"/>
   <path d="m481.98,79.24c-1.64,0.67 -4.67,2.31 -6.62,3.64c-2,1.34 -4.01,2.31 -4.49,2.25c-0.55,-0.12 -1.21,-1.27 -1.58,-2.55c-0.79,-2.85 -1.52,-3.16 -6.74,-2.91l-3.95,0.24l0.12,29.81l0.18,29.87l7.59,0l7.59,0l0.18,-21.31c0.12,-21.19 0.12,-21.31 1.52,-22.52c1.94,-1.7 6.07,-2.85 11.96,-3.22l5.16,-0.3l0.18,-2.12c0.06,-1.15 0.42,-3.89 0.79,-6.01c0.55,-3.34 0.49,-4.01 -0.42,-4.98c-1.46,-1.58 -7.41,-1.52 -11.47,0.12l0,-0.01z" fill="#cccccc" id="svg_9" stroke="#000000"/>
   <path d="m527.2,79.18c-3.4,1.34 -8.44,4.07 -9.83,5.34c-1.52,1.27 -2.55,0.61 -3.52,-2.25l-0.79,-2.49l-3.7,-0.06c-3.64,-0.06 -5.34,0 -5.71,0.36c-0.3,0.3 -0.12,58.64 0.18,59.19c0.24,0.36 3.64,0.61 7.65,0.61l7.22,0l0,-21.55l0,-21.55l1.58,-1.03c2.91,-1.88 7.77,-3.16 12.08,-3.22c2.37,0 4.55,-0.24 4.98,-0.49c1.09,-0.67 1.76,-12.02 0.79,-13.17c-1.09,-1.27 -7.47,-1.15 -10.93,0.3l0,0.01z" fill="#cccccc" id="svg_10" stroke="#000000"/>
   <path d="m562.42,79.36c-5.46,1.94 -7.22,2.97 -10.14,6.01c-4.92,5.04 -7.47,13.36 -7.47,24.16c0,11.29 2.49,19.31 7.65,24.53c3.34,3.46 6.44,5.04 12.38,6.5c5.83,1.46 8.56,1.46 16.39,-0.06c10.2,-2 15.6,-4.19 14.87,-5.95c-0.24,-0.55 -0.67,-1.88 -0.97,-2.85c-0.3,-1.03 -0.79,-2.37 -1.09,-3.04c-0.3,-0.67 -0.73,-1.7 -0.91,-2.31c-0.42,-1.27 -2.49,-1.34 -6.68,-0.12c-17.54,4.98 -23.86,3.22 -25.07,-6.92c-0.24,-2.12 -0.12,-3.1 0.49,-3.46c0.49,-0.3 8.62,-0.67 18.15,-0.85l17.3,-0.3l0.18,-3.58c0.12,-2 -0.06,-6.62 -0.36,-10.32c-0.85,-9.9 -3.46,-15.18 -9.35,-18.94c-4.07,-2.61 -7.16,-3.4 -14.45,-3.64c-6.07,-0.18 -7.47,-0.06 -10.93,1.15l0.01,-0.01zm16.63,13.11c1.52,1.58 1.7,2.25 1.82,6.25l0.06,4.43l-9.35,0.18c-5.52,0.06 -9.59,-0.06 -9.96,-0.42c-0.42,-0.42 -0.3,-1.94 0.18,-4.37c0.61,-2.85 1.27,-4.19 2.91,-5.77c2.06,-2 2.25,-2.06 7.41,-2.06c4.98,0 5.34,0.06 6.92,1.76l0.01,0z" fill="#cccccc" id="svg_11" stroke="#000000"/>
   <path d="m666.83,79.42c-5.28,1.7 -7.1,2.79 -10.08,5.95c-3.04,3.22 -4.49,5.77 -6.01,10.5c-1.76,5.4 -1.64,22.58 0.18,27.99c2.25,6.74 5.4,10.87 10.32,13.78c3.7,2.12 11.05,4.07 15.6,4.07c4.98,0 18.03,-3.04 22.1,-5.1c2.19,-1.15 2.12,-0.97 1.03,-3.52c-0.49,-1.09 -1.34,-3.28 -1.88,-4.92c-1.15,-3.28 -1.94,-3.46 -7.22,-1.94c-17.24,4.86 -23.92,3.28 -24.95,-6.13c-0.36,-2.79 -0.24,-3.82 0.42,-4.37c0.67,-0.49 5.89,-0.73 18.15,-0.85l17.24,-0.18l0.18,-5.46c0.55,-13.96 -2.85,-22.95 -10.44,-27.87c-5.4,-3.46 -17.24,-4.43 -24.65,-1.94l0.01,-0.01zm16.57,13.05c0.85,1.03 1.76,3.28 2.19,5.52c1.09,5.59 1.15,5.52 -10.2,5.34l-9.47,-0.18l0.18,-3.34c0.24,-3.58 1.15,-5.59 3.7,-7.71c1.34,-1.15 2.31,-1.34 6.86,-1.4c5.04,0 5.28,0.06 6.74,1.76l0,0.01z" fill="#cccccc" id="svg_12" stroke="#000000"/>
   <path d="m740.9,78.39c-3.04,1.15 -9.11,4.19 -10.75,5.4c-2.67,2 -3.64,1.88 -4.07,-0.61c-0.24,-1.15 -0.79,-2.37 -1.27,-2.79c-0.73,-0.61 -4.37,-0.85 -8.62,-0.67c-0.61,0.06 -0.79,6.5 -0.79,30.11l0,30.05l7.59,0c4.19,0 7.59,-0.18 7.59,-0.49c0,-0.24 0.06,-9.71 0.06,-21.07c0.06,-16.39 0.24,-20.88 0.91,-21.98c1.09,-1.76 6.68,-3.4 12.99,-3.82l5.16,-0.3l0.36,-6.07c0.24,-3.34 0.12,-6.56 -0.18,-7.16c-0.42,-0.79 -1.27,-1.03 -4.31,-0.97c-2.06,0 -4.19,0.18 -4.67,0.36l0,0.01z" fill="#cccccc" id="svg_13" stroke="#000000"/>
   <path d="m805.55,79.49c-12.57,2.91 -13.3,3.28 -12.87,5.65c0.61,3.4 2.12,8.13 2.79,8.8c0.49,0.49 1.46,0.42 3.89,-0.3c6.13,-1.88 12.32,-2.91 17.61,-2.91c4.8,0 5.46,0.12 6.8,1.46c1.52,1.52 2.37,4.49 2,7.41l-0.18,1.76l-7.59,0.36c-12.2,0.55 -18.09,2.37 -22.7,6.92c-3.58,3.58 -4.92,7.04 -4.92,12.75c0.06,10.87 5.83,18.39 15.3,19.97c4.01,0.73 14.57,-2.31 20.09,-5.71c1.64,-0.97 3.22,-1.82 3.52,-1.82c0.3,0 1.03,1.4 1.64,3.04l1.09,3.1l4.67,-0.18l4.67,-0.18l0,-23.68l0,-23.68l-1.76,-3.52c-0.97,-1.94 -2.97,-4.55 -4.43,-5.89c-3.76,-3.28 -7.53,-4.37 -16.27,-4.61c-6.01,-0.12 -8.32,0.06 -13.36,1.27l0.01,-0.01zm17.24,33.63c1.46,0.3 2.85,0.91 3.16,1.34c0.61,0.97 0.73,6.86 0.18,8.92c-0.42,1.58 -3.7,3.16 -9.53,4.61c-3.52,0.91 -4.25,0.91 -6.01,0.18c-2.85,-1.21 -4.13,-3.4 -4.13,-7.1c0,-6.25 2.61,-8.2 10.93,-8.38c1.52,-0.06 3.95,0.18 5.4,0.42l0,0.01z" fill="#cccccc" id="svg_14" stroke="#000000"/>
   <path d="m761.11,80.09c-0.67,0.49 -0.79,5.77 -0.67,30.05l0.18,29.44l7.47,0.18c4.07,0.06 7.41,-0.06 7.47,-0.3c0.06,-0.24 0.12,-13.72 0.24,-29.81c0.12,-23.37 0,-29.44 -0.67,-29.69c-1.52,-0.55 -13.17,-0.49 -14.02,0.12l0,0.01z" fill="#cccccc" id="svg_15" stroke="#000000"/>
  </g>
  <g id="svg_24">
   <path d="m76.65,47.72c-6.62,6.62 -12.32,12.51 -12.63,13.05c-0.67,1.27 -0.97,18.39 -0.3,20.4c0.85,2.49 2.43,2.85 15.24,3.16l12.14,0.3l0.18,37.4c0.12,36.55 0.18,37.4 1.34,38.49c1.58,1.4 4.49,1.4 6.07,0c1.21,-1.09 1.21,-1.82 1.21,-37.88c0,-21.13 0.24,-37.15 0.55,-37.64c0.49,-0.73 1.82,-0.85 6.19,-0.73c3.16,0.06 5.89,0.3 6.13,0.42c0.24,0.18 0.49,16.94 0.49,37.21c0,36.24 0,36.91 1.21,38.19c1.88,2 5.16,2 6.8,-0.06c0.97,-1.21 1.09,-4.37 1.21,-38.37l0.18,-37.03l9.11,-0.3c7.41,-0.24 9.47,-0.49 10.81,-1.4l1.64,-1.03l0,-21.86l0,-21.79l-1.58,-1.21c-1.58,-1.27 -2.25,-1.27 -27.74,-1.27l-26.17,0l-12.08,11.96l0,-0.01zm58.71,-1.52c0.61,2.43 0.42,26.59 -0.24,27.87c-0.61,1.09 -1.64,1.15 -30.78,1.15c-34.73,0 -32.36,0.42 -32.36,-5.59c0,-2 0.3,-4.19 0.67,-4.92c0.42,-0.73 4.98,-5.52 10.14,-10.62l9.41,-9.23l21.37,0l21.43,0l0.36,1.34z" fill="#cccccc" id="svg_2" stroke="#000000"/>
   <path d="m165.95,36.67c-1.64,0.91 -1.88,1.52 -5.46,11.84c-2.25,6.74 -2.49,10.62 -0.91,16.39c0.61,2.19 1.52,5.46 1.94,7.29c0.42,1.82 1.09,4.49 1.46,5.83c0.42,1.64 0.67,12.32 0.67,29.87l0,27.44l-2.37,1.15c-1.27,0.67 -2.49,1.64 -2.73,2.19c-0.18,0.55 -0.36,5.34 -0.36,10.62c0,8.38 0.12,9.77 1.09,10.99c1.58,1.88 4.74,1.88 6.31,0c0.91,-1.15 1.09,-2.49 1.09,-7.16c0,-8.56 -0.79,-8.07 12.32,-8.07c7.83,0 11.35,0.24 11.84,0.73c0.49,0.49 0.73,2.97 0.73,7.16c0,5.71 0.12,6.62 1.21,7.59c1.88,1.7 4.8,1.46 6.5,-0.55c1.34,-1.58 1.4,-2.06 1.4,-10.68c0,-8.8 -0.06,-9.05 -1.58,-10.87c-0.85,-1.03 -1.94,-1.88 -2.37,-1.88c-0.49,0 -1.03,-0.24 -1.21,-0.61c-0.18,-0.3 -0.3,-13.6 -0.3,-29.56c0,-23.07 0.18,-29.63 0.91,-32.05c0.42,-1.64 1.21,-4.67 1.76,-6.68c0.49,-2 1.27,-5.22 1.76,-7.1l0.91,-3.46l-3.04,-8.98c-1.64,-4.92 -3.52,-9.65 -4.13,-10.5l-1.15,-1.52l-12.32,-0.12c-9.96,-0.12 -12.63,0 -13.96,0.73l-0.01,-0.03zm20.82,8.8c0.61,0.36 1.15,1.15 1.15,1.82c0,0.67 0.36,2.06 0.85,3.16c2.55,5.95 2.55,6.44 0,16.09l-2.37,8.98l-0.18,29.75c-0.06,16.33 -0.36,29.93 -0.67,30.23c-0.67,0.67 -8.13,1.21 -10.68,0.79l-2.12,-0.42l0,-27.87c0,-18.64 -0.24,-28.84 -0.67,-30.78c-0.79,-3.22 -2,-8.01 -3.28,-12.63c-1.88,-7.04 -1.52,-10.32 2,-17.79l0.91,-1.94l6.92,0c3.82,0 7.47,0.3 8.13,0.61l0.01,0z" fill="#cccccc" id="svg_3" stroke="#000000"/>
   <path d="m237.1,36.91c-6.37,2.43 -11.53,5.95 -15.3,10.32c-4.61,5.34 -8.38,15.78 -8.38,23.19c0,6.44 3.4,16.03 7.41,21.01c2.67,3.28 8.44,8.74 10.99,10.32c1.4,0.91 2.91,2.06 3.34,2.55c0.55,0.67 0.73,7.16 0.73,27.62c0,24.47 0.12,26.89 1.09,28.11c1.15,1.46 2.73,1.82 5.1,1.21c1.21,-0.3 1.82,-0.97 2.25,-2.73c0.85,-2.97 0.91,-54.88 0.06,-57.86c-0.36,-1.21 -1.21,-2.49 -2,-2.85c-1.94,-1.03 -3.4,-2 -6.19,-4.07c-11.96,-8.92 -16.15,-19.79 -12.2,-31.75c1.64,-4.98 3.64,-8.2 7.41,-11.66c4.25,-3.89 4.49,-3.46 4.49,8.8c0,9.11 0.12,10.68 1.09,11.78c0.55,0.67 3.76,2.61 7.1,4.37c7.29,3.7 8.01,3.64 15.48,-0.36c2.79,-1.52 5.28,-2.73 5.59,-2.73c0.3,0 0.97,-0.97 1.46,-2.12c0.61,-1.52 0.85,-4.67 0.85,-11.84c0,-9.23 0.06,-9.71 1.21,-9.71c1.58,0 6.62,5.16 8.56,8.86c0.91,1.64 2.12,5.52 2.67,8.62c1.03,5.34 1.03,5.77 0,9.71c-2.12,7.95 -7.04,14.15 -15.84,19.91c-2.73,1.76 -5.1,3.64 -5.34,4.19c-0.67,1.82 -0.42,58.52 0.3,59.86c0.85,1.64 3.22,2.49 5.1,1.76c3.28,-1.21 3.34,-1.88 3.34,-30.6l0,-26.35l4.19,-3.1c11.6,-8.62 17.67,-19 17.67,-30.23c0,-14.87 -7.41,-27.14 -19.97,-33.09c-5.1,-2.37 -7.22,-2.67 -9.17,-1.15c-1.52,1.21 -1.52,1.21 -1.82,14.45c-0.18,7.29 -0.49,13.54 -0.73,13.9c-0.55,0.85 -5.1,3.28 -6.07,3.28c-1.46,0 -5.89,-2.55 -6.25,-3.58c-0.18,-0.61 -0.36,-6.74 -0.49,-13.66l-0.12,-12.63l-1.7,-1.46c-2,-1.7 -2.25,-1.7 -5.89,-0.3l-0.02,0.01z" fill="#cccccc" id="svg_4" stroke="#000000"/>
   <path d="m66.15,170.22c-1.03,0.49 -2.06,1.34 -2.31,1.88c-0.18,0.55 -0.36,21.55 -0.36,46.56c-0.06,50.33 -0.24,48.02 3.76,48.75c1.09,0.18 52.21,0.24 113.52,0.18l111.52,-0.18l1.4,-1.4l1.4,-1.4l0.18,-44.92c0.18,-49.9 0.3,-48.14 -3.7,-49.6c-3.16,-1.15 -222.8,-0.97 -225.41,0.12l0,0.01zm85.36,18.09c0.3,8.98 0.36,9.59 1.76,11.05l1.46,1.58l23.74,0c17.73,-0.06 23.98,-0.24 24.71,-0.79c2,-1.52 2.37,-3.34 2.37,-11.78c0,-5.77 0.24,-8.68 0.73,-9.17c0.97,-0.97 77.04,-1.03 78.86,-0.12c1.09,0.61 1.37,-2.28 1.37,35.72c0,35.09 -0.34,43.08 -1.19,43.44c-0.55,0.18 -48.38,0.36 -106.42,0.36c-81.23,0 -105.63,-0.18 -106.18,-0.73c-1.03,-1.03 -1.03,-32.72 0,-33.75c0.55,-0.55 1.27,-0.73 98.59,-0.73c97.32,0 114.82,0.21 114.98,0c-0.06,0.23 -0.15,-9.1 -0.12,-9.07c-0.03,0.09 -25.92,-0.03 -114.56,-0.03c-75.52,0 -98.35,-0.18 -98.89,-0.73c-0.55,-0.55 -0.73,-5.1 -0.73,-16.82c0,-14.08 0.12,-16.21 1.03,-17.18c0.91,-1.03 2.79,-1.09 39.58,-0.97l38.61,0.18l0.3,9.53l0,0.01zm43.77,-9.23c1.03,0.55 1.15,1.34 1.15,6.37c0,5.04 -0.12,5.83 -1.15,6.37c-1.52,0.79 -30.96,0.85 -33.09,0c-1.52,-0.55 -1.58,-0.73 -1.58,-6.31c0,-4.86 0.18,-5.89 1.09,-6.37c1.4,-0.85 31.99,-0.85 33.57,-0.06l0.01,0z" fill="#cccccc" id="svg_18" stroke="#000000"/>
  </g>
  <g id="svg_30" transform="matrix(1 0 0 1 0 0)">
   <path d="m772.63,54.27c-0.97,0.49 -3.46,1.27 -5.46,1.88c-2,0.55 -4.61,1.4 -5.77,1.82c-1.15,0.42 -4.31,1.46 -6.98,2.25c-5.34,1.7 -5.46,1.88 -4.13,7.16c0.67,2.67 2.25,2.97 8.32,1.52c7.77,-1.82 11.53,-2.67 14.02,-3.04c1.34,-0.18 3.46,-0.67 4.8,-1.09c2.55,-0.73 2.55,-0.85 0.85,-7.1c-1.34,-4.55 -2,-4.98 -5.65,-3.4z" fill="#000000" id="svg_31" stroke="#000000" stroke-width="2"/>
   <path d="m337.71,65.14c-0.49,0.67 -0.61,10.44 -0.55,36.3l0.18,35.45l7.89,0l7.89,0l0.06,-14.02c0,-7.65 0.24,-14.33 0.49,-14.69c0.3,-0.55 3.64,-0.73 11.9,-0.73c9.83,0 11.47,-0.12 11.78,-0.97c0.49,-1.21 0.49,-10.2 0,-11.41c-0.3,-0.85 -1.94,-0.97 -11.78,-0.97c-8.38,0 -11.53,-0.18 -12.02,-0.79c-0.36,-0.42 -0.42,-3.34 -0.18,-7.71l0.36,-6.98l12.75,-0.12c7.04,-0.06 13.11,-0.12 13.54,-0.18c0.61,0 0.73,-1.58 0.61,-6.86l-0.18,-6.8l-21.01,-0.18c-17.24,-0.12 -21.13,0 -21.73,0.67l0,-0.01z" fill="#000000" id="svg_32" stroke="#000000" stroke-width="2"/>
   <path d="m609.68,68.42c-0.36,1.27 -0.85,4.07 -1.03,6.19c-0.49,4.31 -1.7,6.13 -4.13,6.13c-0.85,0 -2.19,0.24 -3.04,0.61c-1.52,0.55 -1.58,0.79 -1.58,5.1c0,4.98 0.18,5.22 4.25,5.22l2.31,0l0.3,16.21c0.36,17.79 0.91,21.67 3.76,25.44c2.19,2.79 3.58,3.64 8.2,4.86c4.13,1.03 11.66,0.85 14.87,-0.36c1.46,-0.55 1.52,-0.73 1.52,-6.68l0,-6.07l-5.04,0c-7.47,0 -7.1,0.97 -7.1,-17.79l0,-15.54l6.25,-0.18l6.19,-0.18l0.18,-4.55c0.3,-7.41 0.49,-7.22 -6.44,-7.41l-5.89,-0.18l-0.3,-6.37l-0.3,-6.37l-6.19,-0.18l-6.19,-0.18l-0.61,2.31l0.01,-0.03z" fill="#000000" id="svg_33" stroke="#000000" stroke-width="2"/>
   <path d="m406.25,76.31c-7.41,2.55 -10.62,4.8 -13.66,9.59c-3.7,5.71 -4.67,10.26 -4.67,20.94c0.06,13.42 1.7,18.7 7.65,24.59c4.55,4.55 9.23,6.56 17.42,7.41c5.89,0.61 23.55,-3.28 25.44,-5.59c0.55,-0.67 0.36,-1.88 -0.67,-4.98c-0.73,-2.25 -1.64,-4.49 -1.94,-4.92c-0.73,-0.91 -3.46,-0.97 -5.71,-0.06c-2.55,1.03 -10.26,2.49 -14.69,2.79c-6.92,0.49 -10.14,-2 -11.05,-8.62c-0.73,-5.46 -1.7,-5.16 18.27,-5.16l17.61,0l0.36,-1.58c0.55,-2.19 -0.3,-13.78 -1.34,-18.27c-2.06,-8.86 -6.74,-13.84 -15.18,-16.15c-4.67,-1.34 -14.08,-1.34 -17.85,0l0.01,0.01zm14.87,12.69c1.76,1.15 3.52,6.37 3.22,9.47l-0.18,2l-9.83,0.18l-9.9,0.12l0,-2.67c0,-3.46 1.82,-7.47 4.01,-8.92c2.37,-1.52 10.5,-1.64 12.69,-0.18l-0.01,0z" fill="#000000" id="svg_34" stroke="#000000" stroke-width="2"/>
   <path d="m476.98,76.55c-1.64,0.67 -4.67,2.31 -6.62,3.64c-2,1.34 -4.01,2.31 -4.49,2.25c-0.55,-0.12 -1.21,-1.27 -1.58,-2.55c-0.79,-2.85 -1.52,-3.16 -6.74,-2.91l-3.95,0.24l0.12,29.81l0.18,29.87l7.59,0l7.59,0l0.18,-21.31c0.12,-21.19 0.12,-21.31 1.52,-22.52c1.94,-1.7 6.07,-2.85 11.96,-3.22l5.16,-0.3l0.18,-2.12c0.06,-1.15 0.42,-3.89 0.79,-6.01c0.55,-3.34 0.49,-4.01 -0.42,-4.98c-1.46,-1.58 -7.41,-1.52 -11.47,0.12l0,-0.01z" fill="#000000" id="svg_35" stroke="#000000" stroke-width="2"/>
   <path d="m522.2,76.49c-3.4,1.34 -8.44,4.07 -9.83,5.34c-1.52,1.27 -2.55,0.61 -3.52,-2.25l-0.79,-2.49l-3.7,-0.06c-3.64,-0.06 -5.34,0 -5.71,0.36c-0.3,0.3 -0.12,58.64 0.18,59.19c0.24,0.36 3.64,0.61 7.65,0.61l7.22,0l0,-21.55l0,-21.55l1.58,-1.03c2.91,-1.88 7.77,-3.16 12.08,-3.22c2.37,0 4.55,-0.24 4.98,-0.49c1.09,-0.67 1.76,-12.02 0.79,-13.17c-1.09,-1.27 -7.47,-1.15 -10.93,0.3l0,0.01z" fill="#000000" id="svg_36" stroke="#000000" stroke-width="2"/>
   <path d="m557.42,76.67c-5.46,1.94 -7.22,2.97 -10.14,6.01c-4.92,5.04 -7.47,13.36 -7.47,24.16c0,11.29 2.49,19.31 7.65,24.53c3.34,3.46 6.44,5.04 12.38,6.5c5.83,1.46 8.56,1.46 16.39,-0.06c10.2,-2 15.6,-4.19 14.87,-5.95c-0.24,-0.55 -0.67,-1.88 -0.97,-2.85c-0.3,-1.03 -0.79,-2.37 -1.09,-3.04c-0.3,-0.67 -0.73,-1.7 -0.91,-2.31c-0.42,-1.27 -2.49,-1.34 -6.68,-0.12c-17.54,4.98 -23.86,3.22 -25.07,-6.92c-0.24,-2.12 -0.12,-3.1 0.49,-3.46c0.49,-0.3 8.62,-0.67 18.15,-0.85l17.3,-0.3l0.18,-3.58c0.12,-2 -0.06,-6.62 -0.36,-10.32c-0.85,-9.9 -3.46,-15.18 -9.35,-18.94c-4.07,-2.61 -7.16,-3.4 -14.45,-3.64c-6.07,-0.18 -7.47,-0.06 -10.93,1.15l0.01,-0.01zm16.63,13.11c1.52,1.58 1.7,2.25 1.82,6.25l0.06,4.43l-9.35,0.18c-5.52,0.06 -9.59,-0.06 -9.96,-0.42c-0.42,-0.42 -0.3,-1.94 0.18,-4.37c0.61,-2.85 1.27,-4.19 2.91,-5.77c2.06,-2 2.25,-2.06 7.41,-2.06c4.98,0 5.34,0.06 6.92,1.76l0.01,0z" fill="#000000" id="svg_37" stroke="#000000" stroke-width="2"/>
   <path d="m661.83,76.73c-5.28,1.7 -7.1,2.79 -10.08,5.95c-3.04,3.22 -4.49,5.77 -6.01,10.5c-1.76,5.4 -1.64,22.58 0.18,27.99c2.25,6.74 5.4,10.87 10.32,13.78c3.7,2.12 11.05,4.07 15.6,4.07c4.98,0 18.03,-3.04 22.1,-5.1c2.19,-1.15 2.12,-0.97 1.03,-3.52c-0.49,-1.09 -1.34,-3.28 -1.88,-4.92c-1.15,-3.28 -1.94,-3.46 -7.22,-1.94c-17.24,4.86 -23.92,3.28 -24.95,-6.13c-0.36,-2.79 -0.24,-3.82 0.42,-4.37c0.67,-0.49 5.89,-0.73 18.15,-0.85l17.24,-0.18l0.18,-5.46c0.55,-13.96 -2.85,-22.95 -10.44,-27.87c-5.4,-3.46 -17.24,-4.43 -24.65,-1.94l0.01,-0.01zm16.57,13.05c0.85,1.03 1.76,3.28 2.19,5.52c1.09,5.59 1.15,5.52 -10.2,5.34l-9.47,-0.18l0.18,-3.34c0.24,-3.58 1.15,-5.59 3.7,-7.71c1.34,-1.15 2.31,-1.34 6.86,-1.4c5.04,0 5.28,0.06 6.74,1.76l0,0.01z" fill="#000000" id="svg_38" stroke="#000000" stroke-width="2"/>
   <path d="m735.9,75.7c-3.04,1.15 -9.11,4.19 -10.75,5.4c-2.67,2 -3.64,1.88 -4.07,-0.61c-0.24,-1.15 -0.79,-2.37 -1.27,-2.79c-0.73,-0.61 -4.37,-0.85 -8.62,-0.67c-0.61,0.06 -0.79,6.5 -0.79,30.11l0,30.05l7.59,0c4.19,0 7.59,-0.18 7.59,-0.49c0,-0.24 0.06,-9.71 0.06,-21.07c0.06,-16.39 0.24,-20.88 0.91,-21.98c1.09,-1.76 6.68,-3.4 12.99,-3.82l5.16,-0.3l0.36,-6.07c0.24,-3.34 0.12,-6.56 -0.18,-7.16c-0.42,-0.79 -1.27,-1.03 -4.31,-0.97c-2.06,0 -4.19,0.18 -4.67,0.36l0,0.01z" fill="#000000" id="svg_39" stroke="#000000" stroke-width="2"/>
   <path d="m800.55,76.8c-12.57,2.91 -13.3,3.28 -12.87,5.65c0.61,3.4 2.12,8.13 2.79,8.8c0.49,0.49 1.46,0.42 3.89,-0.3c6.13,-1.88 12.32,-2.91 17.61,-2.91c4.8,0 5.46,0.12 6.8,1.46c1.52,1.52 2.37,4.49 2,7.41l-0.18,1.76l-7.59,0.36c-12.2,0.55 -18.09,2.37 -22.7,6.92c-3.58,3.58 -4.92,7.04 -4.92,12.75c0.06,10.87 5.83,18.39 15.3,19.97c4.01,0.73 14.57,-2.31 20.09,-5.71c1.64,-0.97 3.22,-1.82 3.52,-1.82c0.3,0 1.03,1.4 1.64,3.04l1.09,3.1l4.67,-0.18l4.67,-0.18l0,-23.68l0,-23.68l-1.76,-3.52c-0.97,-1.94 -2.97,-4.55 -4.43,-5.89c-3.76,-3.28 -7.53,-4.37 -16.27,-4.61c-6.01,-0.12 -8.32,0.06 -13.36,1.27l0.01,-0.01zm17.24,33.63c1.46,0.3 2.85,0.91 3.16,1.34c0.61,0.97 0.73,6.86 0.18,8.92c-0.42,1.58 -3.7,3.16 -9.53,4.61c-3.52,0.91 -4.25,0.91 -6.01,0.18c-2.85,-1.21 -4.13,-3.4 -4.13,-7.1c0,-6.25 2.61,-8.2 10.93,-8.38c1.52,-0.06 3.95,0.18 5.4,0.42l0,0.01z" fill="#000000" id="svg_40" stroke="#000000" stroke-width="2"/>
   <path d="m756.11,77.4c-0.67,0.49 -0.79,5.77 -0.67,30.05l0.18,29.44l7.47,0.18c4.07,0.06 7.41,-0.06 7.47,-0.3c0.06,-0.24 0.12,-13.72 0.24,-29.81c0.12,-23.37 0,-29.44 -0.67,-29.69c-1.52,-0.55 -13.17,-0.49 -14.02,0.12l0,0.01z" fill="#000000" id="svg_41" stroke="#000000" stroke-width="2"/>
  </g>
  <g id="svg_42" transform="matrix(1 0 0 1 0 0)">
   <path d="m70.96,44.35c-6.62,6.62 -12.32,12.51 -12.63,13.05c-0.67,1.27 -0.97,18.39 -0.3,20.4c0.85,2.49 2.43,2.85 15.24,3.16l12.14,0.3l0.18,37.4c0.12,36.55 0.18,37.4 1.34,38.49c1.58,1.4 4.49,1.4 6.07,0c1.21,-1.09 1.21,-1.82 1.21,-37.88c0,-21.13 0.24,-37.15 0.55,-37.64c0.49,-0.73 1.82,-0.85 6.19,-0.73c3.16,0.06 5.89,0.3 6.13,0.42c0.24,0.18 0.49,16.94 0.49,37.21c0,36.24 0,36.91 1.21,38.19c1.88,2 5.16,2 6.8,-0.06c0.97,-1.21 1.09,-4.37 1.21,-38.37l0.18,-37.03l9.11,-0.3c7.41,-0.24 9.47,-0.49 10.81,-1.4l1.64,-1.03l0,-21.86l0,-21.79l-1.58,-1.21c-1.58,-1.27 -2.25,-1.27 -27.74,-1.27l-26.17,0l-12.08,11.96l0,-0.01zm58.71,-1.52c0.61,2.43 0.42,26.59 -0.24,27.87c-0.61,1.09 -1.64,1.15 -30.78,1.15c-34.73,0 -32.36,0.42 -32.36,-5.59c0,-2 0.3,-4.19 0.67,-4.92c0.42,-0.73 4.98,-5.52 10.14,-10.62l9.41,-9.23l21.37,0l21.43,0l0.36,1.34z" fill="#000000" id="svg_43" stroke="#000000" stroke-width="2"/>
   <path d="m160.26,33.3c-1.64,0.91 -1.88,1.52 -5.46,11.84c-2.25,6.74 -2.49,10.62 -0.91,16.39c0.61,2.19 1.52,5.46 1.94,7.29c0.42,1.82 1.09,4.49 1.46,5.83c0.42,1.64 0.67,12.32 0.67,29.87l0,27.44l-2.37,1.15c-1.27,0.67 -2.49,1.64 -2.73,2.19c-0.18,0.55 -0.36,5.34 -0.36,10.62c0,8.38 0.12,9.77 1.09,10.99c1.58,1.88 4.74,1.88 6.31,0c0.91,-1.15 1.09,-2.49 1.09,-7.16c0,-8.56 -0.79,-8.07 12.32,-8.07c7.83,0 11.35,0.24 11.84,0.73c0.49,0.49 0.73,2.97 0.73,7.16c0,5.71 0.12,6.62 1.21,7.59c1.88,1.7 4.8,1.46 6.5,-0.55c1.34,-1.58 1.4,-2.06 1.4,-10.68c0,-8.8 -0.06,-9.05 -1.58,-10.87c-0.85,-1.03 -1.94,-1.88 -2.37,-1.88c-0.49,0 -1.03,-0.24 -1.21,-0.61c-0.18,-0.3 -0.3,-13.6 -0.3,-29.56c0,-23.07 0.18,-29.63 0.91,-32.05c0.42,-1.64 1.21,-4.67 1.76,-6.68c0.49,-2 1.27,-5.22 1.76,-7.1l0.91,-3.46l-3.04,-8.98c-1.64,-4.92 -3.52,-9.65 -4.13,-10.5l-1.15,-1.52l-12.32,-0.12c-9.96,-0.12 -12.63,0 -13.96,0.73l-0.01,-0.03zm20.82,8.8c0.61,0.36 1.15,1.15 1.15,1.82c0,0.67 0.36,2.06 0.85,3.16c2.55,5.95 2.55,6.44 0,16.09l-2.37,8.98l-0.18,29.75c-0.06,16.33 -0.36,29.93 -0.67,30.23c-0.67,0.67 -8.13,1.21 -10.68,0.79l-2.12,-0.42l0,-27.87c0,-18.64 -0.24,-28.84 -0.67,-30.78c-0.79,-3.22 -2,-8.01 -3.28,-12.63c-1.88,-7.04 -1.52,-10.32 2,-17.79l0.91,-1.94l6.92,0c3.82,0 7.47,0.3 8.13,0.61l0.01,0z" fill="#000000" id="svg_44" stroke="#000000" stroke-width="2"/>
   <path d="m231.41,33.54c-6.37,2.43 -11.53,5.95 -15.3,10.32c-4.61,5.34 -8.38,15.78 -8.38,23.19c0,6.44 3.4,16.03 7.41,21.01c2.67,3.28 8.44,8.74 10.99,10.32c1.4,0.91 2.91,2.06 3.34,2.55c0.55,0.67 0.73,7.16 0.73,27.62c0,24.47 0.12,26.89 1.09,28.11c1.15,1.46 2.73,1.82 5.1,1.21c1.21,-0.3 1.82,-0.97 2.25,-2.73c0.85,-2.97 0.91,-54.88 0.06,-57.86c-0.36,-1.21 -1.21,-2.49 -2,-2.85c-1.94,-1.03 -3.4,-2 -6.19,-4.07c-11.96,-8.92 -16.15,-19.79 -12.2,-31.75c1.64,-4.98 3.64,-8.2 7.41,-11.66c4.25,-3.89 4.49,-3.46 4.49,8.8c0,9.11 0.12,10.68 1.09,11.78c0.55,0.67 3.76,2.61 7.1,4.37c7.29,3.7 8.01,3.64 15.48,-0.36c2.79,-1.52 5.28,-2.73 5.59,-2.73c0.3,0 0.97,-0.97 1.46,-2.12c0.61,-1.52 0.85,-4.67 0.85,-11.84c0,-9.23 0.06,-9.71 1.21,-9.71c1.58,0 6.62,5.16 8.56,8.86c0.91,1.64 2.12,5.52 2.67,8.62c1.03,5.34 1.03,5.77 0,9.71c-2.12,7.95 -7.04,14.15 -15.84,19.91c-2.73,1.76 -5.1,3.64 -5.34,4.19c-0.67,1.82 -0.42,58.52 0.3,59.86c0.85,1.64 3.22,2.49 5.1,1.76c3.28,-1.21 3.34,-1.88 3.34,-30.6l0,-26.35l4.19,-3.1c11.6,-8.62 17.67,-19 17.67,-30.23c0,-14.87 -7.41,-27.14 -19.97,-33.09c-5.1,-2.37 -7.22,-2.67 -9.17,-1.15c-1.52,1.21 -1.52,1.21 -1.82,14.45c-0.18,7.29 -0.49,13.54 -0.73,13.9c-0.55,0.85 -5.1,3.28 -6.07,3.28c-1.46,0 -5.89,-2.55 -6.25,-3.58c-0.18,-0.61 -0.36,-6.74 -0.49,-13.66l-0.12,-12.63l-1.7,-1.46c-2,-1.7 -2.25,-1.7 -5.89,-0.3l-0.02,0.01z" fill="#000000" id="svg_45" stroke="#000000" stroke-width="2"/>
   <path d="m60.46,166.85c-1.03,0.49 -2.06,1.34 -2.31,1.88c-0.18,0.55 -0.36,21.55 -0.36,46.56c-0.06,50.33 -0.24,48.02 3.76,48.75c1.09,0.18 52.21,0.24 113.52,0.18l111.52,-0.18l1.4,-1.4l1.4,-1.4l0.18,-44.92c0.18,-49.9 0.3,-48.14 -3.7,-49.6c-3.16,-1.15 -222.8,-0.97 -225.41,0.12l0,0.01zm85.36,18.09c0.3,8.98 0.36,9.59 1.76,11.05l1.46,1.58l23.74,0c17.73,-0.06 23.98,-0.24 24.71,-0.79c2,-1.52 2.37,-3.34 2.37,-11.78c0,-5.77 0.24,-8.68 0.73,-9.17c0.97,-0.97 77.04,-1.03 78.86,-0.12c1.09,0.61 1.37,-2.28 1.37,35.72c0,35.09 -0.34,43.08 -1.19,43.44c-0.55,0.18 -48.38,0.36 -106.42,0.36c-81.23,0 -105.63,-0.18 -106.18,-0.73c-1.03,-1.03 -1.03,-32.72 0,-33.75c0.55,-0.55 1.27,-0.73 98.59,-0.73c97.32,0 114.82,0.21 114.98,0c-0.06,0.23 -0.15,-9.1 -0.12,-9.07c-0.03,0.09 -25.92,-0.03 -114.56,-0.03c-75.52,0 -98.35,-0.18 -98.89,-0.73c-0.55,-0.55 -0.73,-5.1 -0.73,-16.82c0,-14.08 0.12,-16.21 1.03,-17.18c0.91,-1.03 2.79,-1.09 39.58,-0.97l38.61,0.18l0.3,9.53l0,0.01zm43.77,-9.23c1.03,0.55 1.15,1.34 1.15,6.37c0,5.04 -0.12,5.83 -1.15,6.37c-1.52,0.79 -30.96,0.85 -33.09,0c-1.52,-0.55 -1.58,-0.73 -1.58,-6.31c0,-4.86 0.18,-5.89 1.09,-6.37c1.4,-0.85 31.99,-0.85 33.57,-0.06l0.01,0z" fill="#000000" id="svg_46" stroke="#000000" stroke-width="2"/>
  </g>
  <g id="svg_49">
   <path d="m496.75,169.57c-0.32,0.44 -0.51,16.91 -0.44,40.51l0.19,39.8l6.96,0.19c5.17,0.13 7.14,-0.06 7.52,-0.64c0.83,-1.33 0.64,-79.41 -0.19,-79.99c-1.21,-0.7 -13.4,-0.64 -14.04,0.13l0,0.01z" fill="#bfbfbf" id="svg_50" stroke="#000000"/>
   <path d="m529.72,169.07c-0.25,0.44 -0.58,6.89 -0.44,8.87c0.06,1.21 16.2,1.15 17.16,0c0.64,-0.77 0.7,-7.79 0.06,-8.42c-0.51,-0.44 -16.52,-0.89 -16.78,-0.44l0,-0.01z" fill="#bfbfbf" id="svg_51" stroke="#000000"/>
   <path d="m374.22,173.97c-0.13,0.19 -1.98,0.64 -4.09,1.02c-8.68,1.6 -15.25,7.27 -18.5,16.01c-1.98,5.17 -4.09,16.14 -4.09,21.25c0,4.28 1.98,17.03 3.26,20.92c1.27,3.7 3.76,8.16 5.67,10.01c2.36,2.36 7.59,5.67 10.53,6.69c4.01,1.41 16.52,1.98 21.5,1.02c10.78,-1.98 18.94,-9.82 21.56,-20.79c1.91,-7.91 1.91,-28.52 0,-34.57c-2.62,-8.1 -5.42,-12.57 -10.08,-16.01c-3.82,-2.93 -5.11,-3.45 -11.3,-4.84c-4.15,-0.96 -13.71,-1.41 -14.48,-0.7l0.01,0zm13.77,15.06c5.8,3.12 7.08,7.4 7.08,23.85c0,9.95 -0.19,12.76 -1.15,15.69c-2.16,6.77 -6.38,9.64 -14.16,9.64c-11.86,-0.06 -15.25,-5.61 -15.25,-25.32c0,-20.35 2.87,-25.13 15.25,-25.2c4.65,0 6.25,0.25 8.23,1.33l0,0.01z" fill="#bfbfbf" id="svg_52" stroke="#000000"/>
   <path d="m458.22,187.06c-3.82,0.51 -7.33,1.79 -13.21,4.78c-5.23,2.68 -6.13,2.74 -6.63,0.44c-0.83,-4.01 -1.41,-4.47 -5.8,-4.72c-2.3,-0.13 -4.28,-0.06 -4.4,0.06c-0.13,0.13 -0.25,14.29 -0.25,31.45l0,31.2l7.21,-0.19l7.14,-0.19l0.32,-22.33c0.19,-12.31 0.51,-22.64 0.77,-23.03c0.77,-1.21 4.98,-3.12 9.31,-4.34c4.98,-1.33 7.91,-0.64 9.76,2.43c1.15,1.85 1.21,3.45 1.21,23.99c0,12.11 0.25,22.39 0.51,22.83c0.38,0.58 2.36,0.77 7.52,0.64l6.96,-0.19l0,-25.2c0,-24.82 0,-25.26 -1.47,-29.02c-1.6,-4.09 -3.32,-6.31 -5.87,-7.66c-2.04,-1.02 -8.99,-1.53 -13.08,-0.96l0.01,0z" fill="#bfbfbf" id="svg_53" stroke="#000000"/>
   <path d="m596,187.06c-4.4,0.64 -6.69,1.47 -12.82,4.53c-5.3,2.68 -7.27,2.87 -7.27,0.77c0,-0.64 -0.51,-1.98 -1.15,-2.99c-1.02,-1.66 -1.41,-1.85 -4.78,-1.85c-2.04,0 -4.01,0.32 -4.34,0.64c-0.32,0.32 -0.51,12.82 -0.44,31.2l0.19,30.55l6.96,0.19c5.17,0.13 7.08,-0.06 7.46,-0.64c0.32,-0.44 0.58,-10.33 0.51,-21.88c0,-11.61 0.06,-21.5 0.06,-22.14c0,-1.72 6,-4.72 11.93,-5.94c3.06,-0.64 7.52,1.53 8.16,3.89c0.25,1.02 0.64,11.86 0.89,24.18l0.38,22.33l7.21,0.19l7.14,0.19l0,-25.07c-0.06,-22.39 -0.19,-25.45 -1.21,-28.39c-1.47,-4.34 -3.64,-7.46 -6.06,-8.68c-2.36,-1.15 -8.42,-1.66 -12.82,-1.08l-0.01,0.01z" fill="#bfbfbf" id="svg_54" stroke="#000000"/>
   <path d="m653.73,187.06c-2.3,0.19 -4.98,0.77 -6.06,1.21c-7.33,2.99 -9.82,5.11 -12.94,11.03c-2.62,4.84 -3.45,8.87 -3.76,18.37c-0.44,12.69 1.85,20.67 7.72,26.47c7.59,7.52 19.2,9.37 34.06,5.48c10.53,-2.81 10.33,-2.74 10.33,-4.59c0,-1.02 -0.25,-1.91 -0.58,-2.1c-0.32,-0.19 -0.89,-1.66 -1.27,-3.26c-0.38,-1.6 -1.15,-3.06 -1.72,-3.32c-0.51,-0.19 -3.76,0.25 -7.14,1.02c-3.38,0.77 -7.4,1.66 -8.93,2.04c-5.8,1.27 -11.16,0.32 -13.65,-2.43c-2.87,-3.12 -4.28,-11.74 -2.04,-12.57c0.58,-0.19 9.18,-0.38 19.13,-0.38l18.11,0l0,-6.96c0,-6.89 -1.02,-13.27 -2.93,-18.11c-1.02,-2.81 -1.6,-3.57 -4.78,-6.83c-4.15,-4.21 -13.08,-6.13 -23.54,-5.11l-0.01,0.03zm9.31,11.55c3.64,0.96 5.36,3.26 5.8,7.85c0.7,6.77 1.08,6.5 -10.47,6.96c-6.44,0.19 -10.4,0.06 -10.84,-0.32c-1.85,-1.53 0.06,-9.51 2.99,-12.31c1.47,-1.41 4.98,-2.62 8.48,-2.81c0.64,-0.06 2.43,0.25 4.01,0.64l0.02,-0.01z" fill="#bfbfbf" id="svg_55" stroke="#000000"/>
   <path d="m530.75,218.76l0.19,31.13l7.21,0.19l7.14,0.19l0,-31.32l0,-31.26l-7.33,0l-7.33,0l0.13,31.06l0,0.01z" fill="#bfbfbf" id="svg_56" stroke="#000000"/>
  </g>
  <g id="svg_48">
   <path d="m491.85,165.73c-0.32,0.44 -0.51,16.91 -0.44,40.51l0.19,39.8l6.96,0.19c5.17,0.13 7.14,-0.06 7.52,-0.64c0.83,-1.33 0.64,-79.41 -0.19,-79.99c-1.21,-0.7 -13.4,-0.64 -14.04,0.13l0,0.01z" fill="#ffffff" id="svg_16" stroke="#000000"/>
   <path d="m524.83,165.23c-0.25,0.44 -0.58,6.89 -0.44,8.87c0.06,1.21 16.2,1.15 17.16,0c0.64,-0.77 0.7,-7.79 0.06,-8.42c-0.51,-0.44 -16.52,-0.89 -16.78,-0.44l0,-0.01z" fill="#ffffff" id="svg_17" stroke="#000000"/>
   <path d="m369.32,170.14c-0.13,0.19 -1.98,0.64 -4.09,1.02c-8.68,1.6 -15.25,7.27 -18.5,16.01c-1.98,5.17 -4.09,16.14 -4.09,21.25c0,4.28 1.98,17.03 3.26,20.92c1.27,3.7 3.76,8.16 5.67,10.01c2.36,2.36 7.59,5.67 10.53,6.69c4.01,1.41 16.52,1.98 21.5,1.02c10.78,-1.98 18.94,-9.82 21.56,-20.79c1.91,-7.91 1.91,-28.52 0,-34.57c-2.62,-8.1 -5.42,-12.57 -10.08,-16.01c-3.82,-2.93 -5.11,-3.45 -11.3,-4.84c-4.15,-0.96 -13.71,-1.41 -14.48,-0.7l0.01,0zm13.77,15.06c5.8,3.12 7.08,7.4 7.08,23.85c0,9.95 -0.19,12.76 -1.15,15.69c-2.16,6.77 -6.38,9.64 -14.16,9.64c-11.86,-0.06 -15.25,-5.61 -15.25,-25.32c0,-20.35 2.87,-25.13 15.25,-25.2c4.65,0 6.25,0.25 8.23,1.33l0,0.01z" fill="#ffffff" id="svg_19" stroke="#000000"/>
   <path d="m453.32,183.22c-3.82,0.51 -7.33,1.79 -13.21,4.78c-5.23,2.68 -6.13,2.74 -6.63,0.44c-0.83,-4.01 -1.41,-4.47 -5.8,-4.72c-2.3,-0.13 -4.28,-0.06 -4.4,0.06c-0.13,0.13 -0.25,14.29 -0.25,31.45l0,31.2l7.21,-0.19l7.14,-0.19l0.32,-22.33c0.19,-12.31 0.51,-22.64 0.77,-23.03c0.77,-1.21 4.98,-3.12 9.31,-4.34c4.98,-1.33 7.91,-0.64 9.76,2.43c1.15,1.85 1.21,3.45 1.21,23.99c0,12.11 0.25,22.39 0.51,22.83c0.38,0.58 2.36,0.77 7.52,0.64l6.96,-0.19l0,-25.2c0,-24.82 0,-25.26 -1.47,-29.02c-1.6,-4.09 -3.32,-6.31 -5.87,-7.66c-2.04,-1.02 -8.99,-1.53 -13.08,-0.96l0.01,0z" fill="#ffffff" id="svg_20" stroke="#000000"/>
   <path d="m591.1,183.22c-4.4,0.64 -6.69,1.47 -12.82,4.53c-5.3,2.68 -7.27,2.87 -7.27,0.77c0,-0.64 -0.51,-1.98 -1.15,-2.99c-1.02,-1.66 -1.41,-1.85 -4.78,-1.85c-2.04,0 -4.01,0.32 -4.34,0.64c-0.32,0.32 -0.51,12.82 -0.44,31.2l0.19,30.55l6.96,0.19c5.17,0.13 7.08,-0.06 7.46,-0.64c0.32,-0.44 0.58,-10.33 0.51,-21.88c0,-11.61 0.06,-21.5 0.06,-22.14c0,-1.72 6,-4.72 11.93,-5.94c3.06,-0.64 7.52,1.53 8.16,3.89c0.25,1.02 0.64,11.86 0.89,24.18l0.38,22.33l7.21,0.19l7.14,0.19l0,-25.07c-0.06,-22.39 -0.19,-25.45 -1.21,-28.39c-1.47,-4.34 -3.64,-7.46 -6.06,-8.68c-2.36,-1.15 -8.42,-1.66 -12.82,-1.08l-0.01,0.01z" fill="#ffffff" id="svg_21" stroke="#000000"/>
   <path d="m648.83,183.22c-2.3,0.19 -4.98,0.77 -6.06,1.21c-7.33,2.99 -9.82,5.11 -12.94,11.03c-2.62,4.84 -3.45,8.87 -3.76,18.37c-0.44,12.69 1.85,20.67 7.72,26.47c7.59,7.52 19.2,9.37 34.06,5.48c10.53,-2.81 10.33,-2.74 10.33,-4.59c0,-1.02 -0.25,-1.91 -0.58,-2.1c-0.32,-0.19 -0.89,-1.66 -1.27,-3.26c-0.38,-1.6 -1.15,-3.06 -1.72,-3.32c-0.51,-0.19 -3.76,0.25 -7.14,1.02c-3.38,0.77 -7.4,1.66 -8.93,2.04c-5.8,1.27 -11.16,0.32 -13.65,-2.43c-2.87,-3.12 -4.28,-11.74 -2.04,-12.57c0.58,-0.19 9.18,-0.38 19.13,-0.38l18.11,0l0,-6.96c0,-6.89 -1.02,-13.27 -2.93,-18.11c-1.02,-2.81 -1.6,-3.57 -4.78,-6.83c-4.15,-4.21 -13.08,-6.13 -23.54,-5.11l-0.01,0.03zm9.31,11.55c3.64,0.96 5.36,3.26 5.8,7.85c0.7,6.77 1.08,6.5 -10.47,6.96c-6.44,0.19 -10.4,0.06 -10.84,-0.32c-1.85,-1.53 0.06,-9.51 2.99,-12.31c1.47,-1.41 4.98,-2.62 8.48,-2.81c0.64,-0.06 2.43,0.25 4.01,0.64l0.02,-0.01z" fill="#ffffff" id="svg_22" stroke="#000000"/>
   <path d="m525.86,214.92l0.19,31.13l7.21,0.19l7.14,0.19l0,-31.32l0,-31.26l-7.33,0l-7.33,0l0.13,31.06l0,0.01z" fill="#ffffff" id="svg_23" stroke="#000000"/>
  </g>
  <g id="svg_91">
   <circle cx="875.1" cy="27.5" fill="#bfbfbf" id="svg_65" r="10.8" stroke="#000000" stroke-width="5"/>
   <circle cx="873.89" cy="24.3" fill="#bfbfbf" id="svg_75" r="11.37" stroke="#000000" stroke-width="2"/>
   <line fill="#bfbfbf" id="svg_68" stroke="#000000" stroke-width="2" x1="865.65" x2="881.61" y1="15.3" y2="32.11"/>
  </g>
  <g id="svg_92">
   <circle cx="26.53" cy="276.83" fill="#bfbfbf" id="svg_93" r="10.8" stroke="#000000" stroke-width="5"/>
   <circle cx="25.32" cy="273.63" fill="#bfbfbf" id="svg_94" r="11.37" stroke="#000000" stroke-width="2"/>
   <line fill="#bfbfbf" id="svg_95" stroke="#000000" stroke-width="2" x1="17.08" x2="33.04" y1="264.63" y2="281.44"/>
  </g>
  <g id="svg_96" transform="matrix(1 0 0 1 0 0)">
   <circle cx="25.77" cy="26.93" fill="#bfbfbf" id="svg_97" r="10.8" stroke="#000000" stroke-width="5"/>
   <circle cx="24.55" cy="23.73" fill="#bfbfbf" id="svg_98" r="11.37" stroke="#000000" stroke-width="2"/>
   <line fill="#bfbfbf" id="svg_99" stroke="#000000" stroke-width="2" x1="16.32" x2="32.27" y1="14.72" y2="31.53"/>
  </g>
  <g id="svg_100">
   <circle cx="874.53" cy="277.41" fill="#bfbfbf" id="svg_101" r="10.8" stroke="#000000" stroke-width="5"/>
   <circle cx="873.31" cy="274.21" fill="#bfbfbf" id="svg_102" r="11.37" stroke="#000000" stroke-width="2"/>
   <line fill="#bfbfbf" id="svg_103" stroke="#000000" stroke-width="2" x1="865.08" x2="881.03" y1="265.2" y2="282.01"/>
  </g>
 </g>
</svg>