<?xml version="1.0"?>
<svg width="800" height="250" xmlns="http://www.w3.org/2000/svg" xmlns:svg="http://www.w3.org/2000/svg" preserveAspectRatio="xMidYMid meet" version="1.0">
 <metadata>Created by potrace 1.10, written by Peter Selinger 2001-2011</metadata>
 <g class="layer">
  <title>Layer 1</title>
  <path d="m25.09,22.84c-6.62,6.62 -12.32,12.51 -12.63,13.05c-0.67,1.27 -0.97,18.39 -0.3,20.4c0.85,2.49 2.43,2.85 15.24,3.16l12.14,0.3l0.18,37.4c0.12,36.55 0.18,37.4 1.34,38.49c1.58,1.4 4.49,1.4 6.07,0c1.21,-1.09 1.21,-1.82 1.21,-37.88c0,-21.13 0.24,-37.15 0.55,-37.64c0.49,-0.73 1.82,-0.85 6.19,-0.73c3.16,0.06 5.89,0.3 6.13,0.42c0.24,0.18 0.49,16.94 0.49,37.21c0,36.24 0,36.91 1.21,38.19c1.88,2 5.16,2 6.8,-0.06c0.97,-1.21 1.09,-4.37 1.21,-38.37l0.18,-37.03l9.11,-0.3c7.41,-0.24 9.47,-0.49 10.81,-1.4l1.64,-1.03l0,-21.86l0,-21.79l-1.58,-1.21c-1.58,-1.27 -2.25,-1.27 -27.74,-1.27l-26.17,0l-12.08,11.96zm58.71,-1.52c0.61,2.43 0.42,26.59 -0.24,27.87c-0.61,1.09 -1.64,1.15 -30.78,1.15c-34.73,0 -32.36,0.42 -32.36,-5.59c0,-2 0.3,-4.19 0.67,-4.92c0.42,-0.73 4.98,-5.52 10.14,-10.62l9.41,-9.23l21.37,0l21.43,0l0.36,1.34z" fill="#0866ff" id="svg_2"/>
  <path d="m114.39,11.79c-1.64,0.91 -1.88,1.52 -5.46,11.84c-2.25,6.74 -2.49,10.62 -0.91,16.39c0.61,2.19 1.52,5.46 1.94,7.29c0.42,1.82 1.09,4.49 1.46,5.83c0.42,1.64 0.67,12.32 0.67,29.87l0,27.44l-2.37,1.15c-1.27,0.67 -2.49,1.64 -2.73,2.19c-0.18,0.55 -0.36,5.34 -0.36,10.62c0,8.38 0.12,9.77 1.09,10.99c1.58,1.88 4.74,1.88 6.31,0c0.91,-1.15 1.09,-2.49 1.09,-7.16c0,-8.56 -0.79,-8.07 12.32,-8.07c7.83,0 11.35,0.24 11.84,0.73c0.49,0.49 0.73,2.97 0.73,7.16c0,5.71 0.12,6.62 1.21,7.59c1.88,1.7 4.8,1.46 6.5,-0.55c1.34,-1.58 1.4,-2.06 1.4,-10.68c0,-8.8 -0.06,-9.05 -1.58,-10.87c-0.85,-1.03 -1.94,-1.88 -2.37,-1.88c-0.49,0 -1.03,-0.24 -1.21,-0.61c-0.18,-0.3 -0.3,-13.6 -0.3,-29.56c0,-23.07 0.18,-29.63 0.91,-32.05c0.42,-1.64 1.21,-4.67 1.76,-6.68c0.49,-2 1.27,-5.22 1.76,-7.1l0.91,-3.46l-3.04,-8.98c-1.64,-4.92 -3.52,-9.65 -4.13,-10.5l-1.15,-1.52l-12.32,-0.12c-9.96,-0.12 -12.63,0 -13.96,0.73zm20.82,8.8c0.61,0.36 1.15,1.15 1.15,1.82c0,0.67 0.36,2.06 0.85,3.16c2.55,5.95 2.55,6.44 0,16.09l-2.37,8.98l-0.18,29.75c-0.06,16.33 -0.36,29.93 -0.67,30.23c-0.67,0.67 -8.13,1.21 -10.68,0.79l-2.12,-0.42l0,-27.87c0,-18.64 -0.24,-28.84 -0.67,-30.78c-0.79,-3.22 -2,-8.01 -3.28,-12.63c-1.88,-7.04 -1.52,-10.32 2,-17.79l0.91,-1.94l6.92,0c3.82,0 7.47,0.3 8.13,0.61z" fill="#0866ff" id="svg_3"/>
  <path d="m185.54,12.03c-6.37,2.43 -11.53,5.95 -15.3,10.32c-4.61,5.34 -8.38,15.78 -8.38,23.19c0,6.44 3.4,16.03 7.41,21.01c2.67,3.28 8.44,8.74 10.99,10.32c1.4,0.91 2.91,2.06 3.34,2.55c0.55,0.67 0.73,7.16 0.73,27.62c0,24.47 0.12,26.89 1.09,28.11c1.15,1.46 2.73,1.82 5.1,1.21c1.21,-0.3 1.82,-0.97 2.25,-2.73c0.85,-2.97 0.91,-54.88 0.06,-57.86c-0.36,-1.21 -1.21,-2.49 -2,-2.85c-1.94,-1.03 -3.4,-2 -6.19,-4.07c-11.96,-8.92 -16.15,-19.79 -12.2,-31.75c1.64,-4.98 3.64,-8.2 7.41,-11.66c4.25,-3.89 4.49,-3.46 4.49,8.8c0,9.11 0.12,10.68 1.09,11.78c0.55,0.67 3.76,2.61 7.1,4.37c7.29,3.7 8.01,3.64 15.48,-0.36c2.79,-1.52 5.28,-2.73 5.59,-2.73c0.3,0 0.97,-0.97 1.46,-2.12c0.61,-1.52 0.85,-4.67 0.85,-11.84c0,-9.23 0.06,-9.71 1.21,-9.71c1.58,0 6.62,5.16 8.56,8.86c0.91,1.64 2.12,5.52 2.67,8.62c1.03,5.34 1.03,5.77 0,9.71c-2.12,7.95 -7.04,14.15 -15.84,19.91c-2.73,1.76 -5.1,3.64 -5.34,4.19c-0.67,1.82 -0.42,58.52 0.3,59.86c0.85,1.64 3.22,2.49 5.1,1.76c3.28,-1.21 3.34,-1.88 3.34,-30.6l0,-26.35l4.19,-3.1c11.6,-8.62 17.67,-19 17.67,-30.23c0,-14.87 -7.41,-27.14 -19.97,-33.09c-5.1,-2.37 -7.22,-2.67 -9.17,-1.15c-1.52,1.21 -1.52,1.21 -1.82,14.45c-0.18,7.29 -0.49,13.54 -0.73,13.9c-0.55,0.85 -5.1,3.28 -6.07,3.28c-1.46,0 -5.89,-2.55 -6.25,-3.58c-0.18,-0.61 -0.36,-6.74 -0.49,-13.66l-0.12,-12.63l-1.7,-1.46c-2,-1.7 -2.25,-1.7 -5.89,-0.3z" fill="#0866ff" id="svg_4"/>
  <path d="m726.76,31.76c-0.97,0.49 -3.46,1.27 -5.46,1.88c-2,0.55 -4.61,1.4 -5.77,1.82c-1.15,0.42 -4.31,1.46 -6.98,2.25c-5.34,1.7 -5.46,1.88 -4.13,7.16c0.67,2.67 2.25,2.97 8.32,1.52c7.77,-1.82 11.53,-2.67 14.02,-3.04c1.34,-0.18 3.46,-0.67 4.8,-1.09c2.55,-0.73 2.55,-0.85 0.85,-7.1c-1.34,-4.55 -2,-4.98 -5.65,-3.4z" fill="#0866ff" id="svg_5"/>
  <path d="m291.84,42.63c-0.49,0.67 -0.61,10.44 -0.55,36.3l0.18,35.45l7.89,0l7.89,0l0.06,-14.02c0,-7.65 0.24,-14.33 0.49,-14.69c0.3,-0.55 3.64,-0.73 11.9,-0.73c9.83,0 11.47,-0.12 11.78,-0.97c0.49,-1.21 0.49,-10.2 0,-11.41c-0.3,-0.85 -1.94,-0.97 -11.78,-0.97c-8.38,0 -11.53,-0.18 -12.02,-0.79c-0.36,-0.42 -0.42,-3.34 -0.18,-7.71l0.36,-6.98l12.75,-0.12c7.04,-0.06 13.11,-0.12 13.54,-0.18c0.61,0 0.73,-1.58 0.61,-6.86l-0.18,-6.8l-21.01,-0.18c-17.24,-0.12 -21.13,0 -21.73,0.67z" fill="#0866ff" id="svg_6"/>
  <path d="m563.81,45.91c-0.36,1.27 -0.85,4.07 -1.03,6.19c-0.49,4.31 -1.7,6.13 -4.13,6.13c-0.85,0 -2.19,0.24 -3.04,0.61c-1.52,0.55 -1.58,0.79 -1.58,5.1c0,4.98 0.18,5.22 4.25,5.22l2.31,0l0.3,16.21c0.36,17.79 0.91,21.67 3.76,25.44c2.19,2.79 3.58,3.64 8.2,4.86c4.13,1.03 11.66,0.85 14.87,-0.36c1.46,-0.55 1.52,-0.73 1.52,-6.68l0,-6.07l-5.04,0c-7.47,0 -7.1,0.97 -7.1,-17.79l0,-15.54l6.25,-0.18l6.19,-0.18l0.18,-4.55c0.3,-7.41 0.49,-7.22 -6.44,-7.41l-5.89,-0.18l-0.3,-6.37l-0.3,-6.37l-6.19,-0.18l-6.19,-0.18l-0.61,2.31z" fill="#0866ff" id="svg_7"/>
  <path d="m360.38,53.8c-7.41,2.55 -10.62,4.8 -13.66,9.59c-3.7,5.71 -4.67,10.26 -4.67,20.94c0.06,13.42 1.7,18.7 7.65,24.59c4.55,4.55 9.23,6.56 17.42,7.41c5.89,0.61 23.55,-3.28 25.44,-5.59c0.55,-0.67 0.36,-1.88 -0.67,-4.98c-0.73,-2.25 -1.64,-4.49 -1.94,-4.92c-0.73,-0.91 -3.46,-0.97 -5.71,-0.06c-2.55,1.03 -10.26,2.49 -14.69,2.79c-6.92,0.49 -10.14,-2 -11.05,-8.62c-0.73,-5.46 -1.7,-5.16 18.27,-5.16l17.61,0l0.36,-1.58c0.55,-2.19 -0.3,-13.78 -1.34,-18.27c-2.06,-8.86 -6.74,-13.84 -15.18,-16.15c-4.67,-1.34 -14.08,-1.34 -17.85,0zm14.87,12.69c1.76,1.15 3.52,6.37 3.22,9.47l-0.18,2l-9.83,0.18l-9.9,0.12l0,-2.67c0,-3.46 1.82,-7.47 4.01,-8.92c2.37,-1.52 10.5,-1.64 12.69,-0.18z" fill="#0866ff" id="svg_8"/>
  <path d="m431.11,54.04c-1.64,0.67 -4.67,2.31 -6.62,3.64c-2,1.34 -4.01,2.31 -4.49,2.25c-0.55,-0.12 -1.21,-1.27 -1.58,-2.55c-0.79,-2.85 -1.52,-3.16 -6.74,-2.91l-3.95,0.24l0.12,29.81l0.18,29.87l7.59,0l7.59,0l0.18,-21.31c0.12,-21.19 0.12,-21.31 1.52,-22.52c1.94,-1.7 6.07,-2.85 11.96,-3.22l5.16,-0.3l0.18,-2.12c0.06,-1.15 0.42,-3.89 0.79,-6.01c0.55,-3.34 0.49,-4.01 -0.42,-4.98c-1.46,-1.58 -7.41,-1.52 -11.47,0.12z" fill="#0866ff" id="svg_9"/>
  <path d="m476.33,53.98c-3.4,1.34 -8.44,4.07 -9.83,5.34c-1.52,1.27 -2.55,0.61 -3.52,-2.25l-0.79,-2.49l-3.7,-0.06c-3.64,-0.06 -5.34,0 -5.71,0.36c-0.3,0.3 -0.12,58.64 0.18,59.19c0.24,0.36 3.64,0.61 7.65,0.61l7.22,0l0,-21.55l0,-21.55l1.58,-1.03c2.91,-1.88 7.77,-3.16 12.08,-3.22c2.37,0 4.55,-0.24 4.98,-0.49c1.09,-0.67 1.76,-12.02 0.79,-13.17c-1.09,-1.27 -7.47,-1.15 -10.93,0.3z" fill="#0866ff" id="svg_10"/>
  <path d="m511.55,54.16c-5.46,1.94 -7.22,2.97 -10.14,6.01c-4.92,5.04 -7.47,13.36 -7.47,24.16c0,11.29 2.49,19.31 7.65,24.53c3.34,3.46 6.44,5.04 12.38,6.5c5.83,1.46 8.56,1.46 16.39,-0.06c10.2,-2 15.6,-4.19 14.87,-5.95c-0.24,-0.55 -0.67,-1.88 -0.97,-2.85c-0.3,-1.03 -0.79,-2.37 -1.09,-3.04c-0.3,-0.67 -0.73,-1.7 -0.91,-2.31c-0.42,-1.27 -2.49,-1.34 -6.68,-0.12c-17.54,4.98 -23.86,3.22 -25.07,-6.92c-0.24,-2.12 -0.12,-3.1 0.49,-3.46c0.49,-0.3 8.62,-0.67 18.15,-0.85l17.3,-0.3l0.18,-3.58c0.12,-2 -0.06,-6.62 -0.36,-10.32c-0.85,-9.9 -3.46,-15.18 -9.35,-18.94c-4.07,-2.61 -7.16,-3.4 -14.45,-3.64c-6.07,-0.18 -7.47,-0.06 -10.93,1.15zm16.63,13.11c1.52,1.58 1.7,2.25 1.82,6.25l0.06,4.43l-9.35,0.18c-5.52,0.06 -9.59,-0.06 -9.96,-0.42c-0.42,-0.42 -0.3,-1.94 0.18,-4.37c0.61,-2.85 1.27,-4.19 2.91,-5.77c2.06,-2 2.25,-2.06 7.41,-2.06c4.98,0 5.34,0.06 6.92,1.76z" fill="#0866ff" id="svg_11"/>
  <path d="m615.96,54.22c-5.28,1.7 -7.1,2.79 -10.08,5.95c-3.04,3.22 -4.49,5.77 -6.01,10.5c-1.76,5.4 -1.64,22.58 0.18,27.99c2.25,6.74 5.4,10.87 10.32,13.78c3.7,2.12 11.05,4.07 15.6,4.07c4.98,0 18.03,-3.04 22.1,-5.1c2.19,-1.15 2.12,-0.97 1.03,-3.52c-0.49,-1.09 -1.34,-3.28 -1.88,-4.92c-1.15,-3.28 -1.94,-3.46 -7.22,-1.94c-17.24,4.86 -23.92,3.28 -24.95,-6.13c-0.36,-2.79 -0.24,-3.82 0.42,-4.37c0.67,-0.49 5.89,-0.73 18.15,-0.85l17.24,-0.18l0.18,-5.46c0.55,-13.96 -2.85,-22.95 -10.44,-27.87c-5.4,-3.46 -17.24,-4.43 -24.65,-1.94zm16.57,13.05c0.85,1.03 1.76,3.28 2.19,5.52c1.09,5.59 1.15,5.52 -10.2,5.34l-9.47,-0.18l0.18,-3.34c0.24,-3.58 1.15,-5.59 3.7,-7.71c1.34,-1.15 2.31,-1.34 6.86,-1.4c5.04,0 5.28,0.06 6.74,1.76z" fill="#0866ff" id="svg_12"/>
  <path d="m690.03,53.19c-3.04,1.15 -9.11,4.19 -10.75,5.4c-2.67,2 -3.64,1.88 -4.07,-0.61c-0.24,-1.15 -0.79,-2.37 -1.27,-2.79c-0.73,-0.61 -4.37,-0.85 -8.62,-0.67c-0.61,0.06 -0.79,6.5 -0.79,30.11l0,30.05l7.59,0c4.19,0 7.59,-0.18 7.59,-0.49c0,-0.24 0.06,-9.71 0.06,-21.07c0.06,-16.39 0.24,-20.88 0.91,-21.98c1.09,-1.76 6.68,-3.4 12.99,-3.82l5.16,-0.3l0.36,-6.07c0.24,-3.34 0.12,-6.56 -0.18,-7.16c-0.42,-0.79 -1.27,-1.03 -4.31,-0.97c-2.06,0 -4.19,0.18 -4.67,0.36z" fill="#0866ff" id="svg_13"/>
  <path d="m754.68,54.29c-12.57,2.91 -13.3,3.28 -12.87,5.65c0.61,3.4 2.12,8.13 2.79,8.8c0.49,0.49 1.46,0.42 3.89,-0.3c6.13,-1.88 12.32,-2.91 17.61,-2.91c4.8,0 5.46,0.12 6.8,1.46c1.52,1.52 2.37,4.49 2,7.41l-0.18,1.76l-7.59,0.36c-12.2,0.55 -18.09,2.37 -22.7,6.92c-3.58,3.58 -4.92,7.04 -4.92,12.75c0.06,10.87 5.83,18.39 15.3,19.97c4.01,0.73 14.57,-2.31 20.09,-5.71c1.64,-0.97 3.22,-1.82 3.52,-1.82c0.3,0 1.03,1.4 1.64,3.04l1.09,3.1l4.67,-0.18l4.67,-0.18l0,-23.68l0,-23.68l-1.76,-3.52c-0.97,-1.94 -2.97,-4.55 -4.43,-5.89c-3.76,-3.28 -7.53,-4.37 -16.27,-4.61c-6.01,-0.12 -8.32,0.06 -13.36,1.27zm17.24,33.63c1.46,0.3 2.85,0.91 3.16,1.34c0.61,0.97 0.73,6.86 0.18,8.92c-0.42,1.58 -3.7,3.16 -9.53,4.61c-3.52,0.91 -4.25,0.91 -6.01,0.18c-2.85,-1.21 -4.13,-3.4 -4.13,-7.1c0,-6.25 2.61,-8.2 10.93,-8.38c1.52,-0.06 3.95,0.18 5.4,0.42z" fill="#0866ff" id="svg_14"/>
  <path d="m710.24,54.89c-0.67,0.49 -0.79,5.77 -0.67,30.05l0.18,29.44l7.47,0.18c4.07,0.06 7.41,-0.06 7.47,-0.3c0.06,-0.24 0.12,-13.72 0.24,-29.81c0.12,-23.37 0,-29.44 -0.67,-29.69c-1.52,-0.55 -13.17,-0.49 -14.02,0.12z" fill="#0866ff" id="svg_15"/>
  <path d="m14.59,145.29c-1.03,0.49 -2.06,1.34 -2.31,1.88c-0.18,0.55 -0.36,21.55 -0.36,46.56c-0.06,50.33 -0.24,48.02 3.76,48.75c1.09,0.18 52.21,0.24 113.52,0.18l111.52,-0.18l1.4,-1.4l1.4,-1.4l0.18,-44.92c0.18,-49.9 0.3,-48.14 -3.7,-49.6c-3.16,-1.15 -222.8,-0.97 -225.41,0.12zm85.36,18.09c0.3,8.98 0.36,9.59 1.76,11.05l1.46,1.58l23.74,0c17.73,-0.06 23.98,-0.24 24.71,-0.79c2,-1.52 2.37,-3.34 2.37,-11.78c0,-5.77 0.24,-8.68 0.73,-9.17c0.97,-0.97 77.04,-1.03 78.86,-0.12c1.09,0.61 1.15,-0.8 1.15,37.2c0,35.09 -0.12,41.6 -0.97,41.96c-0.55,0.18 -48.38,0.36 -106.42,0.36c-81.23,0 -105.63,-0.18 -106.18,-0.73c-1.03,-1.03 -1.03,-32.72 0,-33.75c0.55,-0.55 1.27,-0.73 98.59,-0.73c97.32,0 119.71,1.91 119.38,-1.21c-0.33,-3.12 -0.59,-7.07 -1.44,-7.42c-0.85,-0.35 -29,-0.47 -117.64,-0.47c-75.52,0 -98.35,-0.18 -98.89,-0.73c-0.55,-0.55 -0.73,-5.1 -0.73,-16.82c0,-14.08 0.12,-16.21 1.03,-17.18c0.91,-1.03 2.79,-1.09 39.58,-0.97l38.61,0.18l0.3,9.53zm43.77,-9.23c1.03,0.55 1.15,1.34 1.15,6.37c0,5.04 -0.12,5.83 -1.15,6.37c-1.52,0.79 -30.96,0.85 -33.09,0c-1.52,-0.55 -1.58,-0.73 -1.58,-6.31c0,-4.86 0.18,-5.89 1.09,-6.37c1.4,-0.85 31.99,-0.85 33.57,-0.06z" fill="#0866ff" id="svg_18"/>
  <g id="svg_25">
   <path d="m433.78,144.19c-0.3,0.42 -0.49,16.09 -0.42,38.55l0.18,37.88l6.62,0.18c4.92,0.12 6.8,-0.06 7.16,-0.61c0.79,-1.27 0.61,-75.58 -0.18,-76.13c-1.15,-0.67 -12.75,-0.61 -13.36,0.12z" id="svg_16"/>
   <path d="m465.16,143.71c-0.24,0.42 -0.55,6.56 -0.42,8.44c0.06,1.15 15.42,1.09 16.33,0c0.61,-0.73 0.67,-7.41 0.06,-8.01c-0.49,-0.42 -15.72,-0.85 -15.97,-0.42z" id="svg_17"/>
   <path d="m317.16,148.38c-0.12,0.18 -1.88,0.61 -3.89,0.97c-8.26,1.52 -14.51,6.92 -17.61,15.24c-1.88,4.92 -3.89,15.36 -3.89,20.22c0,4.07 1.88,16.21 3.1,19.91c1.21,3.52 3.58,7.77 5.4,9.53c2.25,2.25 7.22,5.4 10.02,6.37c3.82,1.34 15.72,1.88 20.46,0.97c10.26,-1.88 18.03,-9.35 20.52,-19.79c1.82,-7.53 1.82,-27.14 0,-32.9c-2.49,-7.71 -5.16,-11.96 -9.59,-15.24c-3.64,-2.79 -4.86,-3.28 -10.75,-4.61c-3.95,-0.91 -13.05,-1.34 -13.78,-0.67zm13.11,14.33c5.52,2.97 6.74,7.04 6.74,22.7c0,9.47 -0.18,12.14 -1.09,14.93c-2.06,6.44 -6.07,9.17 -13.48,9.17c-11.29,-0.06 -14.51,-5.34 -14.51,-24.1c0,-19.37 2.73,-23.92 14.51,-23.98c4.43,0 5.95,0.24 7.83,1.27z" id="svg_19"/>
   <path d="m397.11,160.83c-3.64,0.49 -6.98,1.7 -12.57,4.55c-4.98,2.55 -5.83,2.61 -6.31,0.42c-0.79,-3.82 -1.34,-4.25 -5.52,-4.49c-2.19,-0.12 -4.07,-0.06 -4.19,0.06c-0.12,0.12 -0.24,13.6 -0.24,29.93l0,29.69l6.86,-0.18l6.8,-0.18l0.3,-21.25c0.18,-11.72 0.49,-21.55 0.73,-21.92c0.73,-1.15 4.74,-2.97 8.86,-4.13c4.74,-1.27 7.53,-0.61 9.29,2.31c1.09,1.76 1.15,3.28 1.15,22.83c0,11.53 0.24,21.31 0.49,21.73c0.36,0.55 2.25,0.73 7.16,0.61l6.62,-0.18l0,-23.98c0,-23.62 0,-24.04 -1.4,-27.62c-1.52,-3.89 -3.16,-6.01 -5.59,-7.29c-1.94,-0.97 -8.56,-1.46 -12.45,-0.91z" id="svg_20"/>
   <path d="m528.24,160.83c-4.19,0.61 -6.37,1.4 -12.2,4.31c-5.04,2.55 -6.92,2.73 -6.92,0.73c0,-0.61 -0.49,-1.88 -1.09,-2.85c-0.97,-1.58 -1.34,-1.76 -4.55,-1.76c-1.94,0 -3.82,0.3 -4.13,0.61c-0.3,0.3 -0.49,12.2 -0.42,29.69l0.18,29.08l6.62,0.18c4.92,0.12 6.74,-0.06 7.1,-0.61c0.3,-0.42 0.55,-9.83 0.49,-20.82c0,-11.05 0.06,-20.46 0.06,-21.07c0,-1.64 5.71,-4.49 11.35,-5.65c2.91,-0.61 7.16,1.46 7.77,3.7c0.24,0.97 0.61,11.29 0.85,23.01l0.36,21.25l6.86,0.18l6.8,0.18l0,-23.86c-0.06,-21.31 -0.18,-24.22 -1.15,-27.02c-1.4,-4.13 -3.46,-7.1 -5.77,-8.26c-2.25,-1.09 -8.01,-1.58 -12.2,-1.03z" id="svg_21"/>
   <path d="m583.18,160.83c-2.19,0.18 -4.74,0.73 -5.77,1.15c-6.98,2.85 -9.35,4.86 -12.32,10.5c-2.49,4.61 -3.28,8.44 -3.58,17.48c-0.42,12.08 1.76,19.67 7.35,25.19c7.22,7.16 18.27,8.92 32.42,5.22c10.02,-2.67 9.83,-2.61 9.83,-4.37c0,-0.97 -0.24,-1.82 -0.55,-2c-0.3,-0.18 -0.85,-1.58 -1.21,-3.1c-0.36,-1.52 -1.09,-2.91 -1.64,-3.16c-0.49,-0.18 -3.58,0.24 -6.8,0.97c-3.22,0.73 -7.04,1.58 -8.5,1.94c-5.52,1.21 -10.62,0.3 -12.99,-2.31c-2.73,-2.97 -4.07,-11.17 -1.94,-11.96c0.55,-0.18 8.74,-0.36 18.21,-0.36l17.24,0l0,-6.62c0,-6.56 -0.97,-12.63 -2.79,-17.24c-0.97,-2.67 -1.52,-3.4 -4.55,-6.5c-3.95,-4.01 -12.45,-5.83 -22.4,-4.86zm8.86,10.99c3.46,0.91 5.1,3.1 5.52,7.47c0.67,6.44 1.03,6.19 -9.96,6.62c-6.13,0.18 -9.9,0.06 -10.32,-0.3c-1.76,-1.46 0.06,-9.05 2.85,-11.72c1.4,-1.34 4.74,-2.49 8.07,-2.67c0.61,-0.06 2.31,0.24 3.82,0.61z" id="svg_22"/>
   <path d="m466.14,191l0.18,29.63l6.86,0.18l6.8,0.18l0,-29.81l0,-29.75l-6.98,0l-6.98,0l0.12,29.56z" id="svg_23"/>
  </g>
 </g>
</svg>