<?xml version="1.0"?>
<svg width="800" height="400" xmlns="http://www.w3.org/2000/svg" xmlns:svg="http://www.w3.org/2000/svg" preserveAspectRatio="xMidYMid meet" version="1.0">
 <metadata>Created by potrace 1.10, written by Peter Selinger 2001-2011</metadata>
 <g class="layer">
  <title>Layer 1</title>
  <path d="m118.3,91.5c-1.62,0.9 -1.86,1.5 -5.39,11.68c-2.22,6.65 -2.46,10.48 -0.9,16.17c0.6,2.16 1.5,5.39 1.92,7.19c0.42,1.8 1.08,4.43 1.44,5.75c0.42,1.62 0.66,12.16 0.66,29.46l0,27.07l-2.34,1.14c-1.26,0.66 -2.46,1.62 -2.69,2.16c-0.18,0.54 -0.36,5.27 -0.36,10.48c0,8.26 0.12,9.64 1.08,10.84c1.56,1.86 4.67,1.86 6.23,0c0.9,-1.14 1.08,-2.46 1.08,-7.07c0,-8.44 -0.78,-7.96 12.16,-7.96c7.72,0 11.2,0.24 11.68,0.72c0.48,0.48 0.72,2.93 0.72,7.07c0,5.63 0.12,6.53 1.2,7.48c1.86,1.68 4.73,1.44 6.41,-0.54c1.32,-1.56 1.38,-2.04 1.38,-10.54c0,-8.68 -0.06,-8.92 -1.56,-10.72c-0.84,-1.02 -1.92,-1.86 -2.34,-1.86c-0.48,0 -1.02,-0.24 -1.2,-0.6c-0.18,-0.3 -0.3,-13.41 -0.3,-29.16c0,-22.75 0.18,-29.22 0.9,-31.62c0.42,-1.62 1.2,-4.61 1.74,-6.59c0.48,-1.98 1.26,-5.15 1.74,-7.01l0.9,-3.41l-2.99,-8.86c-1.62,-4.85 -3.47,-9.52 -4.07,-10.36l-1.14,-1.5l-12.16,-0.12c-9.82,-0.12 -12.46,0 -13.77,0.72zm20.54,8.68c0.6,0.36 1.14,1.14 1.14,1.8c0,0.66 0.36,2.04 0.84,3.11c2.51,5.87 2.51,6.35 0,15.87l-2.34,8.86l-0.18,29.34c-0.06,16.11 -0.36,29.52 -0.66,29.82c-0.66,0.66 -8.02,1.2 -10.54,0.78l-2.1,-0.42l0,-27.48c0,-18.38 -0.24,-28.44 -0.66,-30.36c-0.78,-3.17 -1.98,-7.9 -3.23,-12.46c-1.86,-6.95 -1.5,-10.18 1.98,-17.54l0.9,-1.92l6.83,0c3.77,0 7.37,0.3 8.02,0.6z" fill="#3f3f3f" id="svg_3"/>
  <path d="m188.48,91.74c-6.29,2.4 -11.38,5.87 -15.09,10.18c-4.55,5.27 -8.26,15.57 -8.26,22.87c0,6.35 3.35,15.81 7.31,20.72c2.63,3.23 8.32,8.62 10.84,10.18c1.38,0.9 2.87,2.04 3.29,2.51c0.54,0.66 0.72,7.07 0.72,27.25c0,24.13 0.12,26.53 1.08,27.72c1.14,1.44 2.69,1.8 5.03,1.2c1.2,-0.3 1.8,-0.96 2.22,-2.69c0.84,-2.93 0.9,-54.13 0.06,-57.07c-0.36,-1.2 -1.2,-2.46 -1.98,-2.81c-1.92,-1.02 -3.35,-1.98 -6.11,-4.01c-11.8,-8.8 -15.93,-19.52 -12.04,-31.32c1.62,-4.91 3.59,-8.08 7.31,-11.5c4.19,-3.83 4.43,-3.41 4.43,8.68c0,8.98 0.12,10.54 1.08,11.62c0.54,0.66 3.71,2.57 7.01,4.31c7.19,3.65 7.9,3.59 15.27,-0.36c2.75,-1.5 5.21,-2.69 5.51,-2.69c0.3,0 0.96,-0.96 1.44,-2.1c0.6,-1.5 0.84,-4.61 0.84,-11.68c0,-9.1 0.06,-9.58 1.2,-9.58c1.56,0 6.53,5.09 8.44,8.74c0.9,1.62 2.1,5.45 2.63,8.5c1.02,5.27 1.02,5.69 0,9.58c-2.1,7.84 -6.95,13.95 -15.63,19.64c-2.69,1.74 -5.03,3.59 -5.27,4.13c-0.66,1.8 -0.42,57.72 0.3,59.04c0.84,1.62 3.17,2.46 5.03,1.74c3.23,-1.2 3.29,-1.86 3.29,-30.18l0,-25.99l4.13,-3.05c11.44,-8.5 17.43,-18.74 17.43,-29.82c0,-14.67 -7.31,-26.77 -19.7,-32.63c-5.03,-2.34 -7.13,-2.63 -9.04,-1.14c-1.5,1.2 -1.5,1.2 -1.8,14.25c-0.18,7.19 -0.48,13.35 -0.72,13.71c-0.54,0.84 -5.03,3.23 -5.99,3.23c-1.44,0 -5.81,-2.51 -6.17,-3.53c-0.18,-0.6 -0.36,-6.65 -0.48,-13.47l-0.12,-12.46l-1.68,-1.44c-1.98,-1.68 -2.22,-1.68 -5.81,-0.3z" fill="#3f3f3f" id="svg_4"/>
  <path d="m723.61,111.2c-0.96,0.48 -3.41,1.26 -5.39,1.86c-1.98,0.54 -4.55,1.38 -5.69,1.8c-1.14,0.42 -4.25,1.44 -6.89,2.22c-5.27,1.68 -5.39,1.86 -4.07,7.07c0.66,2.63 2.22,2.93 8.2,1.5c7.66,-1.8 11.38,-2.63 13.83,-2.99c1.32,-0.18 3.41,-0.66 4.73,-1.08c2.51,-0.72 2.51,-0.84 0.84,-7.01c-1.32,-4.49 -1.98,-4.91 -5.57,-3.35z" fill="#3f3f3f" id="svg_5"/>
  <path d="m293.33,121.92c-0.48,0.66 -0.6,10.3 -0.54,35.81l0.18,34.97l7.78,0l7.78,0l0.06,-13.83c0,-7.54 0.24,-14.13 0.48,-14.49c0.3,-0.54 3.59,-0.72 11.74,-0.72c9.7,0 11.32,-0.12 11.62,-0.96c0.48,-1.2 0.48,-10.06 0,-11.26c-0.3,-0.84 -1.92,-0.96 -11.62,-0.96c-8.26,0 -11.38,-0.18 -11.86,-0.78c-0.36,-0.42 -0.42,-3.29 -0.18,-7.6l0.36,-6.89l12.57,-0.12c6.95,-0.06 12.93,-0.12 13.35,-0.18c0.6,0 0.72,-1.56 0.6,-6.77l-0.18,-6.71l-20.72,-0.18c-17.01,-0.12 -20.84,0 -21.44,0.66z" fill="#3f3f3f" id="svg_6"/>
  <path d="m562.89,125.15c-0.36,1.26 -0.84,4.01 -1.02,6.11c-0.48,4.25 -1.68,6.05 -4.07,6.05c-0.84,0 -2.16,0.24 -2.99,0.6c-1.5,0.54 -1.56,0.78 -1.56,5.03c0,4.91 0.18,5.15 4.19,5.15l2.28,0l0.3,15.99c0.36,17.54 0.9,21.38 3.71,25.09c2.16,2.75 3.53,3.59 8.08,4.79c4.07,1.02 11.5,0.84 14.67,-0.36c1.44,-0.54 1.5,-0.72 1.5,-6.59l0,-5.99l-4.97,0c-7.37,0 -7.01,0.96 -7.01,-17.54l0,-15.33l6.17,-0.18l6.11,-0.18l0.18,-4.49c0.3,-7.31 0.48,-7.13 -6.35,-7.31l-5.81,-0.18l-0.3,-6.29l-0.3,-6.29l-6.11,-0.18l-6.11,-0.18l-0.6,2.28z" fill="#3f3f3f" id="svg_7"/>
  <path d="m360.94,132.94c-7.31,2.51 -10.48,4.73 -13.47,9.46c-3.65,5.63 -4.61,10.12 -4.61,20.66c0.06,13.23 1.68,18.44 7.54,24.25c4.49,4.49 9.1,6.47 17.19,7.31c5.81,0.6 23.23,-3.23 25.09,-5.51c0.54,-0.66 0.36,-1.86 -0.66,-4.91c-0.72,-2.22 -1.62,-4.43 -1.92,-4.85c-0.72,-0.9 -3.41,-0.96 -5.63,-0.06c-2.51,1.02 -10.12,2.46 -14.49,2.75c-6.83,0.48 -10,-1.98 -10.9,-8.5c-0.72,-5.39 -1.68,-5.09 18.02,-5.09l17.37,0l0.36,-1.56c0.54,-2.16 -0.3,-13.59 -1.32,-18.02c-2.04,-8.74 -6.65,-13.65 -14.97,-15.93c-4.61,-1.32 -13.89,-1.32 -17.6,0zm14.67,12.51c1.74,1.14 3.47,6.29 3.17,9.34l-0.18,1.98l-9.7,0.18l-9.76,0.12l0,-2.63c0,-3.41 1.8,-7.37 3.95,-8.8c2.34,-1.5 10.36,-1.62 12.51,-0.18z" fill="#3f3f3f" id="svg_8"/>
  <path d="m430.7,133.18c-1.62,0.66 -4.61,2.28 -6.53,3.59c-1.98,1.32 -3.95,2.28 -4.43,2.22c-0.54,-0.12 -1.2,-1.26 -1.56,-2.51c-0.78,-2.81 -1.5,-3.11 -6.65,-2.87l-3.89,0.24l0.12,29.4l0.18,29.46l7.48,0l7.48,0l0.18,-21.02c0.12,-20.9 0.12,-21.02 1.5,-22.22c1.92,-1.68 5.99,-2.81 11.8,-3.17l5.09,-0.3l0.18,-2.1c0.06,-1.14 0.42,-3.83 0.78,-5.93c0.54,-3.29 0.48,-3.95 -0.42,-4.91c-1.44,-1.56 -7.31,-1.5 -11.32,0.12z" fill="#3f3f3f" id="svg_9"/>
  <path d="m475.31,133.12c-3.35,1.32 -8.32,4.01 -9.7,5.27c-1.5,1.26 -2.51,0.6 -3.47,-2.22l-0.78,-2.46l-3.65,-0.06c-3.59,-0.06 -5.27,0 -5.63,0.36c-0.3,0.3 -0.12,57.84 0.18,58.38c0.24,0.36 3.59,0.6 7.54,0.6l7.13,0l0,-21.26l0,-21.26l1.56,-1.02c2.87,-1.86 7.66,-3.11 11.92,-3.17c2.34,0 4.49,-0.24 4.91,-0.48c1.08,-0.66 1.74,-11.86 0.78,-12.99c-1.08,-1.26 -7.37,-1.14 -10.78,0.3z" fill="#3f3f3f" id="svg_10"/>
  <path d="m511.33,133.3c-5.39,1.92 -7.13,2.93 -10,5.93c-4.85,4.97 -7.37,13.17 -7.37,23.83c0,11.14 2.46,19.04 7.54,24.19c3.29,3.41 6.35,4.97 12.22,6.41c5.75,1.44 8.44,1.44 16.17,-0.06c10.06,-1.98 15.39,-4.13 14.67,-5.87c-0.24,-0.54 -0.66,-1.86 -0.96,-2.81c-0.3,-1.02 -0.78,-2.34 -1.08,-2.99c-0.3,-0.66 -0.72,-1.68 -0.9,-2.28c-0.42,-1.26 -2.46,-1.32 -6.59,-0.12c-17.31,4.91 -23.53,3.17 -24.73,-6.83c-0.24,-2.1 -0.12,-3.05 0.48,-3.41c0.48,-0.3 8.5,-0.66 17.9,-0.84l17.07,-0.3l0.18,-3.53c0.12,-1.98 -0.06,-6.53 -0.36,-10.18c-0.84,-9.76 -3.41,-14.97 -9.22,-18.68c-4.01,-2.57 -7.07,-3.35 -14.25,-3.59c-5.99,-0.18 -7.37,-0.06 -10.78,1.14zm16.41,12.93c1.5,1.56 1.68,2.22 1.8,6.17l0.06,4.37l-9.22,0.18c-5.45,0.06 -9.46,-0.06 -9.82,-0.42c-0.42,-0.42 -0.3,-1.92 0.18,-4.31c0.6,-2.81 1.26,-4.13 2.87,-5.69c2.04,-1.98 2.22,-2.04 7.31,-2.04c4.91,0 5.27,0.06 6.83,1.74z" fill="#3f3f3f" id="svg_11"/>
  <path d="m614.33,133.36c-5.21,1.68 -7.01,2.75 -9.94,5.87c-2.99,3.17 -4.43,5.69 -5.93,10.36c-1.74,5.33 -1.62,22.28 0.18,27.6c2.22,6.65 5.33,10.72 10.18,13.59c3.65,2.1 10.9,4.01 15.39,4.01c4.91,0 17.78,-2.99 21.8,-5.03c2.16,-1.14 2.1,-0.96 1.02,-3.47c-0.48,-1.08 -1.32,-3.23 -1.86,-4.85c-1.14,-3.23 -1.92,-3.41 -7.13,-1.92c-17.01,4.79 -23.59,3.23 -24.61,-6.05c-0.36,-2.75 -0.24,-3.77 0.42,-4.31c0.66,-0.48 5.81,-0.72 17.9,-0.84l17.01,-0.18l0.18,-5.39c0.54,-13.77 -2.81,-22.63 -10.3,-27.48c-5.33,-3.41 -17.01,-4.37 -24.31,-1.92zm16.35,12.87c0.84,1.02 1.74,3.23 2.16,5.45c1.08,5.51 1.14,5.45 -10.06,5.27l-9.34,-0.18l0.18,-3.29c0.24,-3.53 1.14,-5.51 3.65,-7.6c1.32,-1.14 2.28,-1.32 6.77,-1.38c4.97,0 5.21,0.06 6.65,1.74z" fill="#3f3f3f" id="svg_12"/>
  <path d="m687.38,132.34c-2.99,1.14 -8.98,4.13 -10.6,5.33c-2.63,1.98 -3.59,1.86 -4.01,-0.6c-0.24,-1.14 -0.78,-2.34 -1.26,-2.75c-0.72,-0.6 -4.31,-0.84 -8.5,-0.66c-0.6,0.06 -0.78,6.41 -0.78,29.7l0,29.64l7.48,0c4.13,0 7.48,-0.18 7.48,-0.48c0,-0.24 0.06,-9.58 0.06,-20.78c0.06,-16.17 0.24,-20.6 0.9,-21.68c1.08,-1.74 6.59,-3.35 12.81,-3.77l5.09,-0.3l0.36,-5.99c0.24,-3.29 0.12,-6.47 -0.18,-7.07c-0.42,-0.78 -1.26,-1.02 -4.25,-0.96c-2.04,0 -4.13,0.18 -4.61,0.36z" fill="#3f3f3f" id="svg_13"/>
  <path d="m749.86,133.42c-12.4,2.87 -13.11,3.23 -12.69,5.57c0.6,3.35 2.1,8.02 2.75,8.68c0.48,0.48 1.44,0.42 3.83,-0.3c6.05,-1.86 12.16,-2.87 17.37,-2.87c4.73,0 5.39,0.12 6.71,1.44c1.5,1.5 2.34,4.43 1.98,7.31l-0.18,1.74l-7.48,0.36c-12.04,0.54 -17.84,2.34 -22.4,6.83c-3.53,3.53 -4.85,6.95 -4.85,12.57c0.06,10.72 5.75,18.14 15.09,19.7c3.95,0.72 14.37,-2.28 19.82,-5.63c1.62,-0.96 3.17,-1.8 3.47,-1.8c0.3,0 1.02,1.38 1.62,2.99l1.08,3.05l4.61,-0.18l4.61,-0.18l0,-23.35l0,-23.35l-1.74,-3.47c-0.96,-1.92 -2.93,-4.49 -4.37,-5.81c-3.71,-3.23 -7.43,-4.31 -16.05,-4.55c-5.93,-0.12 -8.2,0.06 -13.17,1.26zm17.01,33.17c1.44,0.3 2.81,0.9 3.11,1.32c0.6,0.96 0.72,6.77 0.18,8.8c-0.42,1.56 -3.65,3.11 -9.4,4.55c-3.47,0.9 -4.19,0.9 -5.93,0.18c-2.81,-1.2 -4.07,-3.35 -4.07,-7.01c0,-6.17 2.57,-8.08 10.78,-8.26c1.5,-0.06 3.89,0.18 5.33,0.42z" fill="#3f3f3f" id="svg_14"/>
  <path d="m707.32,134.02c-0.66,0.48 -0.78,5.69 -0.66,29.64l0.18,29.04l7.37,0.18c4.01,0.06 7.31,-0.06 7.37,-0.3c0.06,-0.24 0.12,-13.53 0.24,-29.4c0.12,-23.05 0,-29.04 -0.66,-29.28c-1.5,-0.54 -12.99,-0.48 -13.83,0.12z" fill="#3f3f3f" id="svg_15"/>
  <path d="m433.33,222.1c-0.3,0.42 -0.48,15.87 -0.42,38.02l0.18,37.37l6.53,0.18c4.85,0.12 6.71,-0.06 7.07,-0.6c0.78,-1.26 0.6,-74.55 -0.18,-75.09c-1.14,-0.66 -12.57,-0.6 -13.17,0.12z" fill="#bfbfbf" id="svg_16"/>
  <path d="m465.59,221.62c-0.24,0.42 -0.54,6.47 -0.42,8.32c0.06,1.14 15.21,1.08 16.11,0c0.6,-0.72 0.66,-7.31 0.06,-7.9c-0.48,-0.42 -15.51,-0.84 -15.75,-0.42z" fill="#bfbfbf" id="svg_17"/>
  <path d="m318.3,226.23c-0.12,0.18 -1.86,0.6 -3.83,0.96c-8.14,1.5 -14.31,6.83 -17.37,15.03c-1.86,4.85 -3.83,15.15 -3.83,19.94c0,4.01 1.86,15.99 3.05,19.64c1.2,3.47 3.53,7.66 5.33,9.4c2.22,2.22 7.13,5.33 9.88,6.29c3.77,1.32 15.51,1.86 20.18,0.96c10.12,-1.86 17.78,-9.22 20.24,-19.52c1.8,-7.43 1.8,-26.77 0,-32.45c-2.46,-7.6 -5.09,-11.8 -9.46,-15.03c-3.59,-2.75 -4.79,-3.23 -10.6,-4.55c-3.89,-0.9 -12.87,-1.32 -13.59,-0.66zm12.93,14.13c5.45,2.93 6.65,6.95 6.65,22.4c0,9.34 -0.18,11.98 -1.08,14.73c-2.04,6.35 -5.99,9.04 -13.29,9.04c-11.14,-0.06 -14.31,-5.27 -14.31,-23.77c0,-19.1 2.69,-23.59 14.31,-23.65c4.37,0 5.87,0.24 7.72,1.26z" fill="#bfbfbf" id="svg_19"/>
  <path d="m397.17,238.51c-3.59,0.48 -6.89,1.68 -12.4,4.49c-4.91,2.51 -5.75,2.57 -6.23,0.42c-0.78,-3.77 -1.32,-4.19 -5.45,-4.43c-2.16,-0.12 -4.01,-0.06 -4.13,0.06c-0.12,0.12 -0.24,13.41 -0.24,29.52l0,29.28l6.77,-0.18l6.71,-0.18l0.3,-20.96c0.18,-11.56 0.48,-21.26 0.72,-21.62c0.72,-1.14 4.67,-2.93 8.74,-4.07c4.67,-1.26 7.43,-0.6 9.16,2.28c1.08,1.74 1.14,3.23 1.14,22.51c0,11.38 0.24,21.02 0.48,21.44c0.36,0.54 2.22,0.72 7.07,0.6l6.53,-0.18l0,-23.65c0,-23.29 0,-23.71 -1.38,-27.25c-1.5,-3.83 -3.11,-5.93 -5.51,-7.19c-1.92,-0.96 -8.44,-1.44 -12.28,-0.9z" fill="#bfbfbf" id="svg_20"/>
  <path d="m527.8,238.51c-4.13,0.6 -6.29,1.38 -12.04,4.25c-4.97,2.51 -6.83,2.69 -6.83,0.72c0,-0.6 -0.48,-1.86 -1.08,-2.81c-0.96,-1.56 -1.32,-1.74 -4.49,-1.74c-1.92,0 -3.77,0.3 -4.07,0.6c-0.3,0.3 -0.48,12.04 -0.42,29.28l0.18,28.68l6.53,0.18c4.85,0.12 6.65,-0.06 7.01,-0.6c0.3,-0.42 0.54,-9.7 0.48,-20.54c0,-10.9 0.06,-20.18 0.06,-20.78c0,-1.62 5.63,-4.43 11.2,-5.57c2.87,-0.6 7.07,1.44 7.66,3.65c0.24,0.96 0.6,11.14 0.84,22.69l0.36,20.96l6.77,0.18l6.71,0.18l0,-23.53c-0.06,-21.02 -0.18,-23.89 -1.14,-26.65c-1.38,-4.07 -3.41,-7.01 -5.69,-8.14c-2.22,-1.08 -7.9,-1.56 -12.04,-1.02z" fill="#bfbfbf" id="svg_21"/>
  <path d="m581.99,238.51c-2.16,0.18 -4.67,0.72 -5.69,1.14c-6.89,2.81 -9.22,4.79 -12.16,10.36c-2.46,4.55 -3.23,8.32 -3.53,17.25c-0.42,11.92 1.74,19.4 7.25,24.85c7.13,7.07 18.02,8.8 31.98,5.15c9.88,-2.63 9.7,-2.57 9.7,-4.31c0,-0.96 -0.24,-1.8 -0.54,-1.98c-0.3,-0.18 -0.84,-1.56 -1.2,-3.05c-0.36,-1.5 -1.08,-2.87 -1.62,-3.11c-0.48,-0.18 -3.53,0.24 -6.71,0.96c-3.17,0.72 -6.95,1.56 -8.38,1.92c-5.45,1.2 -10.48,0.3 -12.81,-2.28c-2.69,-2.93 -4.01,-11.02 -1.92,-11.8c0.54,-0.18 8.62,-0.36 17.96,-0.36l17.01,0l0,-6.53c0,-6.47 -0.96,-12.46 -2.75,-17.01c-0.96,-2.63 -1.5,-3.35 -4.49,-6.41c-3.89,-3.95 -12.28,-5.75 -22.1,-4.79zm8.74,10.84c3.41,0.9 5.03,3.05 5.45,7.37c0.66,6.35 1.02,6.11 -9.82,6.53c-6.05,0.18 -9.76,0.06 -10.18,-0.3c-1.74,-1.44 0.06,-8.92 2.81,-11.56c1.38,-1.32 4.67,-2.46 7.96,-2.63c0.6,-0.06 2.28,0.24 3.77,0.6z" fill="#bfbfbf" id="svg_22"/>
  <path d="m466.54,268.27l0.18,29.22l6.77,0.18l6.71,0.18l0,-29.4l0,-29.34l-6.89,0l-6.89,0l0.12,29.16z" fill="#bfbfbf" id="svg_23"/>
  <path d="m30.22,102.4c-6.53,6.53 -12.16,12.34 -12.46,12.87c-0.66,1.26 -0.96,18.14 -0.3,20.12c0.84,2.46 2.4,2.81 15.03,3.11l11.98,0.3l0.18,36.89c0.12,36.05 0.18,36.89 1.32,37.96c1.56,1.38 4.43,1.38 5.99,0c1.2,-1.08 1.2,-1.8 1.2,-37.37c0,-20.84 0.24,-36.65 0.54,-37.13c0.48,-0.72 1.8,-0.84 6.11,-0.72c3.11,0.06 5.81,0.3 6.05,0.42c0.24,0.18 0.48,16.71 0.48,36.71c0,35.75 0,36.41 1.2,37.66c1.86,1.98 5.09,1.98 6.71,-0.06c0.96,-1.2 1.08,-4.31 1.2,-37.84l0.18,-36.53l8.98,-0.3c7.31,-0.24 9.34,-0.48 10.66,-1.38l1.62,-1.02l0,-21.56l0,-21.5l-1.56,-1.2c-1.56,-1.26 -2.22,-1.26 -27.37,-1.26l-25.81,0l-11.92,11.8zm57.9,-1.5c0.6,2.4 0.42,26.23 -0.24,27.48c-0.6,1.08 -1.62,1.14 -30.36,1.14c-34.25,0 -31.92,0.42 -31.92,-5.51c0,-1.98 0.3,-4.13 0.66,-4.85c0.42,-0.72 4.91,-5.45 10,-10.48l9.28,-9.1l21.08,0l21.14,0l0.36,1.32z" fill="#3f3f3f" id="svg_26"/>
  <path d="m19.86,223.18c-1.02,0.48 -2.04,1.32 -2.28,1.86c-0.18,0.54 -0.36,21.26 -0.36,45.93c-0.06,49.64 -0.24,47.37 3.71,48.08c1.08,0.18 51.5,0.24 111.98,0.18l110,-0.18l1.38,-1.38l1.38,-1.38l0.18,-44.31c0.18,-49.22 0.3,-47.48 -3.65,-48.92c-3.11,-1.14 -219.76,-0.96 -222.33,0.12zm84.19,17.84c0.3,8.86 0.36,9.46 1.74,10.9l1.44,1.56l23.41,0c17.48,-0.06 23.65,-0.24 24.37,-0.78c1.98,-1.5 2.34,-3.29 2.34,-11.62c0,-5.69 0.24,-8.56 0.72,-9.04c0.96,-0.96 75.99,-1.02 77.78,-0.12c1.08,0.6 1.14,1.68 1.14,39.16c0,34.61 -0.12,38.56 -0.96,38.92c-0.54,0.18 -47.72,0.36 -104.97,0.36c-80.12,0 -104.19,-0.18 -104.73,-0.72c-1.02,-1.02 -1.02,-32.28 0,-33.29c0.54,-0.54 22.93,-0.72 97.25,-0.72c95.99,0 96.47,0 98.02,-1.2c2.63,-2.1 2.63,-4.25 0.06,-6.83c-0.84,-0.84 -10.36,-0.96 -97.78,-0.96c-74.49,0 -97.01,-0.18 -97.54,-0.72c-0.54,-0.54 -0.72,-5.03 -0.72,-16.59c0,-13.89 0.12,-15.99 1.02,-16.95c0.9,-1.02 2.75,-1.08 39.04,-0.96l38.08,0.18l0.3,9.4zm43.17,-9.1c1.02,0.54 1.14,1.32 1.14,6.29c0,4.97 -0.12,5.75 -1.14,6.29c-1.5,0.78 -30.54,0.84 -32.63,0c-1.5,-0.54 -1.56,-0.72 -1.56,-6.23c0,-4.79 0.18,-5.81 1.08,-6.29c1.38,-0.84 31.56,-0.84 33.11,-0.06z" fill="#3f3f3f" id="svg_27"/>
 </g>
</svg>